<svg width="490" height="572" xmlns="http://www.w3.org/2000/svg" xmlns:xlink="http://www.w3.org/1999/xlink" xml:space="preserve" overflow="hidden"><g transform="translate(-673 -400)"><path d="M135.218 489.916C135.218 489.758 135.213 489.599 135.213 489.441 138.703 489.427 142.194 489.408 145.684 489.393 145.708 489.571 145.736 489.743 145.76 489.921 142.246 489.916 138.732 489.916 135.218 489.916Z" fill="#FEA0BD" transform="matrix(6.13366e-17 1.0017 -1 6.12323e-17 1162.98 399.856)"/><path d="M120.371 198.448C120.208 200.543 121.416 202.254 122.044 204.11 123.856 209.484 125.208 214.92 125.15 220.635 125.064 229.077 122.039 236.427 116.847 242.966 112.575 248.345 107.216 252.386 101.228 255.651 100.825 255.872 100.331 255.929 99.8807 256.063 99.5211 254.285 98.1692 254.419 96.8987 254.606 90.2589 255.584 84.0025 254.136 77.8948 251.677 76.423 251.082 74.9992 250.402 73.7911 249.347 73.6472 249.169 73.5034 248.997 73.3596 248.82 73.3596 248.82 73.3788 248.843 73.3788 248.843 72.9569 248.177 72.5782 247.472 72.0987 246.844 67.832 241.25 65.4301 234.859 64.8261 227.946 63.92 217.547 65.8424 207.643 71.3988 198.659 77.7222 188.428 86.553 181.419 98.2794 178.274 99.2335 178.298 100.192 178.322 101.146 178.346 104.967 187.234 111.66 193.39 119.92 198.05 120.073 198.194 120.232 198.337 120.385 198.481 120.385 198.481 120.371 198.448 120.371 198.448Z" fill="#FEA0BD" transform="matrix(6.13366e-17 1.0017 -1 6.12323e-17 1162.98 399.856)"/><path d="M502.356 437.118C503.517 447.497 500.631 456.673 494.096 464.751 493.3 465.734 492.529 466.755 491.426 467.431 490.51 466.439 489.542 467.067 488.564 467.316 478.175 469.948 468.894 467.623 460.7 460.878 459.358 459.775 458.783 459.593 457.963 461.3 454.909 467.676 447.2 468.807 441.941 466.142 435.421 462.839 432.688 457.277 432.871 450.125 433.69 448.653 435.061 447.876 436.528 447.238 440.158 445.661 443.883 444.913 447.857 445.752 449.132 446.021 450.566 446.141 449.64 443.921 449.003 442.396 448.533 440.771 448.739 439.06 449.228 438.724 449.175 438.422 448.682 438.144L448.696 438.178C448.72 437.674 448.749 437.166 448.773 436.663 450.858 434.524 452.244 431.84 454.669 429.913 462.028 424.064 470.154 420.66 479.604 422.419 488.578 424.092 497.342 426.561 501.944 435.757 501.944 435.757 501.925 435.723 501.925 435.723 501.949 436.226 501.829 436.773 502.356 437.118Z" fill="#FEA0BD" transform="matrix(6.13366e-17 1.0017 -1 6.12323e-17 1162.98 399.856)"/><path d="M163.043 425.229C159.361 425.593 156.082 424.845 153.618 421.825 152.554 420.521 152.089 421.13 151.542 422.367 148.038 430.301 143.085 436.83 134.451 439.755 129.964 441.275 125.462 441.557 120.869 440.34 120.265 440.177 119.623 440.162 118.995 440.081 111.852 429.424 112.384 418.253 116.852 406.862 117.782 404.489 118.87 401.977 121.286 400.822 130.434 396.445 139.576 396.018 148.584 401.335 149.509 401.881 150.238 402.917 151.528 402.692 151.528 402.692 151.513 402.677 151.513 402.677 151.446 403.123 151.571 403.468 152.021 403.646 152.021 403.646 152.002 403.626 152.002 403.626 152.17 403.794 152.333 403.957 152.501 404.125 152.501 404.125 152.477 404.106 152.477 404.106 152.64 404.293 152.798 404.48 152.961 404.672 153.618 405.592 154.27 406.508 154.927 407.428 155.919 408.962 153.421 408.828 153.661 409.959 153.906 410.343 154.222 410.295 154.524 410.214 158.201 409.236 161.543 410.166 164.314 412.524 168.283 415.904 169.597 419.634 165.196 423.79 164.74 424.222 164.381 424.749 163.978 425.233 163.978 425.233 164.007 425.214 164.007 425.214 163.681 425.21 163.364 425.219 163.043 425.229Z" fill="#FEA0BD" transform="matrix(6.13366e-17 1.0017 -1 6.12323e-17 1162.98 399.856)"/><path d="M113.156 438.182C114.229 440.81 115.869 443.192 116.492 446.016 117.787 451.87 116.761 457.196 113.064 461.995 111.032 464.636 109.387 467.532 107.983 470.552 106.046 470.979 104.095 470.763 102.143 470.725 101.295 470.145 100.466 469.541 99.6026 468.98 92.4642 464.368 87.0564 458.567 85.6086 449.746 83.7437 438.393 91.8409 428.589 102.599 428.489 103.414 428.666 104.234 428.843 105.049 429.021 105.049 429.021 105.02 429.002 105.02 429.002 105.169 429.169 105.317 429.337 105.466 429.51 107.508 432.871 110.37 435.493 113.156 438.182Z" fill="#FEA0BD" transform="matrix(6.13366e-17 1.0017 -1 6.12323e-17 1162.98 399.856)"/><path d="M236.834 374.842C239.399 374.004 242.06 374.33 244.625 374.555 246.854 374.751 249.074 374.814 251.298 374.876 260.838 375.14 270.35 375.888 279.857 376.731 284.924 377.182 290.011 377.412 295.088 377.762 303.885 378.371 312.672 379.172 321.484 379.531 325.257 379.685 329.097 379.119 332.856 378.548 346.658 376.453 360.244 373.097 374.133 371.487 382.182 370.552 390.217 369.305 398.358 369.665 407.51 370.072 416.614 369.281 425.727 368.687 420.583 370.029 415.295 370.595 410.065 371.477 400.117 373.15 390.15 374.718 380.174 376.175 371.367 377.46 362.522 378.433 353.715 379.733 348.945 380.437 344.093 380.514 339.376 381.607 333.575 381.66 327.822 382.412 322.059 382.949 319.609 383.179 317.15 383.141 314.686 383.4 310.347 383.865 305.951 383.889 301.579 383.961 298.793 384.004 296.022 384.105 293.251 384.436 288.103 385.059 283.141 383.515 278.121 382.868 268.293 381.602 258.552 379.756 248.848 377.738 246.6 377.268 244.351 376.789 242.098 376.319 240.344 375.825 238.589 375.332 236.834 374.842Z" fill="#FEA0BD" transform="matrix(6.13366e-17 1.0017 -1 6.12323e-17 1162.98 399.856)"/><path d="M561.362 302.974C561.3 305.822 561.664 308.722 560.384 311.421 559.162 314 557.858 316.517 555.097 317.831 555.015 316.541 555.916 315.621 556.329 314.513 557.954 310.184 559.128 305.855 556.75 301.382 555.073 298.223 552.714 295.648 549.948 293.458 542.67 287.7 534.348 283.908 525.67 280.844 514.462 276.889 503.085 273.663 491.1 273.198 490.309 273.169 489.475 273.284 488.966 272.455 491.493 270.705 494.446 269.722 496.886 267.742 498.583 266.366 499.71 264.535 501.354 263.168 501.494 264.544 502.75 264.616 503.632 264.961 518.422 270.714 532.368 278.025 545 287.676 550.95 292.221 556.827 296.895 561.362 302.974Z" fill="#FEA0BD" transform="matrix(6.13366e-17 1.0017 -1 6.12323e-17 1162.98 399.856)"/><path d="M0.920471 308.789C3.01071 311.771 4.99068 314.835 7.56032 317.452 17.0575 327.122 28.6784 333.21 41.3732 337.453 54.5187 341.849 68.0956 344.553 81.5959 347.554 94.4106 350.402 107.12 353.652 119.604 357.694 123.425 358.931 127.389 359.904 130.884 362.033 122.998 360.546 115.092 359.161 107.23 357.555 86.3277 353.283 65.6219 348.197 45.4195 341.279 31.8186 336.619 19.2628 329.902 8.10685 320.75 4.32429 317.649 1.37591 313.943 0.920471 308.789Z" fill="#FEA0BD" transform="matrix(6.13366e-17 1.0017 -1 6.12323e-17 1162.98 399.856)"/><path d="M103.275 265.148C104.756 266.639 105.221 268.72 106.314 270.436 108.179 273.356 109.958 276.328 112.278 278.931 112.566 279.253 112.619 279.79 112.782 280.221 109.694 280.106 106.602 280.063 103.519 279.866 91.8361 279.123 80.1529 278.553 68.4408 279.372 65.0418 279.612 61.614 279.521 58.191 279.766 62.568 278.73 66.9499 277.714 71.3269 276.659 76.7682 275.345 82.0657 273.552 86.8359 270.604 91.9176 267.469 97.6658 266.572 103.275 265.148Z" fill="#FEA0BD" transform="matrix(6.13366e-17 1.0017 -1 6.12323e-17 1162.98 399.856)"/><path d="M512.779 350.92C517.367 348.518 522.372 347.156 527.137 345.191 536.419 341.36 545.537 337.213 553.658 331.23 558.275 327.827 562.599 324.106 564.723 318.43 565.974 315.084 565.562 311.685 565.663 308.291 571.19 314.283 569.604 321.192 564.014 327.429 559.224 332.774 553.145 336.235 546.755 339.184 536.548 343.892 525.91 347.43 515.123 350.551 514.337 350.776 513.584 350.958 512.779 350.92Z" fill="#FEA0BD" transform="matrix(6.13366e-17 1.0017 -1 6.12323e-17 1162.98 399.856)"/><path d="M16.324 307.768C11.2326 305.529 9.55468 298.774 10.2498 294.646 10.3793 293.87 10.4847 293.088 10.6046 292.307 14.2913 289.162 18.8553 287.911 23.3378 286.597 30.1934 284.593 37.2263 283.299 44.2449 281.976 44.6284 281.904 45.0312 281.966 45.4626 282.1 39.1727 283.553 33.1993 286.022 26.9813 287.652 19.8333 289.526 15.6816 293.985 14.2194 301.19 13.6632 303.899 15.4035 305.654 16.324 307.768Z" fill="#FEA0BD" transform="matrix(6.13366e-17 1.0017 -1 6.12323e-17 1162.98 399.856)"/><path d="M509.572 351.879C509.941 351.347 510.502 351.404 511.043 351.394 510.684 351.96 510.104 351.84 509.572 351.879Z" fill="#FEA0BD" transform="matrix(6.13366e-17 1.0017 -1 6.12323e-17 1162.98 399.856)"/><path d="M511.01 351.414C511.422 350.819 512.045 350.925 512.64 350.92 512.204 351.433 511.604 351.409 511.01 351.414Z" fill="#FEA0BD" transform="matrix(6.13366e-17 1.0017 -1 6.12323e-17 1162.98 399.856)"/><path d="M498.593 236.398C496.771 239.792 493.497 241.595 490.424 243.479 475.001 252.942 454.837 250.162 442.478 236.527 434.496 227.721 431.562 217.097 432.516 205.375 432.655 203.659 432.257 203.645 430.934 204.004 424.879 205.653 418.675 206.104 412.472 205.639 400.529 204.738 389.628 200.773 380.14 193.385 372.613 187.527 366.649 180.321 362.651 171.605 359.199 164.079 357.004 156.24 357.123 147.865 357.162 145.027 357.061 144.926 354.64 146.326 344.088 152.424 332.745 156.691 321.187 160.287 312.404 163.019 303.295 164.568 294.177 165.91 282.91 167.564 271.62 168.743 260.206 168.321 259.927 168.312 259.64 168.556 259.357 168.681 251.049 164.549 242.218 162.473 232.98 161.993 232.625 161.849 232.28 161.672 231.911 161.567 219.801 158.081 207.983 153.93 198.083 145.76 195.801 143.876 193.006 142.448 191.736 139.514 191.583 139.355 191.429 139.197 191.281 139.044L191.309 139.073C191.141 138.905 190.974 138.737 190.811 138.569L190.825 138.588C187.795 133.655 185.949 128.324 185.005 122.595 183.48 113.357 183.883 104.215 185.739 95.0913 187.177 88.0344 189.488 81.2555 192.58 74.7691 195.552 68.5463 199.737 63.105 204.474 58.1527 208.808 53.6174 212.72 48.5213 218.219 45.2948 226.455 40.4624 234.571 35.2368 244.006 32.9452 250.809 31.2912 257.741 30.5385 264.765 30.1023 276.645 29.3688 288.337 30.3803 299.771 33.3431 312.859 36.7325 325.267 41.8335 336.657 49.365 343.546 53.9194 350.004 58.982 355.829 64.735 362.694 71.5139 368.677 79.103 373.548 87.4974 374.67 89.4295 375.868 91.3136 376.894 93.2935 377.561 94.5784 378.692 95.0338 379.848 94.8612 387.748 93.6627 395.404 95.1153 402.96 97.0809 417.232 100.801 429.865 107.676 441.097 117.235 451.198 125.831 459.32 135.947 465.073 147.903 468.016 154.025 470.586 160.382 470.989 167.19 471.214 171.001 471.036 174.981 470.058 178.792 469.469 181.103 470.011 182.771 472.019 184.396 474.297 186.232 475.787 188.907 477.264 191.453 482.576 200.6 485.601 210.39 485.088 221.057 484.949 223.976 484.388 226.886 483.866 229.772 483.367 232.539 483.281 232.452 486.023 232.534 490.553 232.663 494.796 233.824 498.593 236.398ZM360.997 137.63C362.704 137.26 363.974 136.172 365.206 135.046 369.861 130.788 371.496 125.031 372.915 119.211 373.352 117.418 374.047 115.581 373.687 113.635 371.367 119.115 368.068 124.005 365.235 129.144 363.711 131.905 361.625 134.389 360.964 137.591 360.757 137.658 360.551 137.725 360.345 137.797 360.388 137.855 360.465 137.97 360.47 137.97 360.652 137.86 360.825 137.745 360.997 137.63Z" fill="#FEA0BD" transform="matrix(6.13366e-17 1.0017 -1 6.12323e-17 1162.98 399.856)"/><path d="M169.381 194.67C165.579 196.813 161.792 198.999 157.655 200.428 151.379 202.599 144.974 203.506 138.282 202.945 134.465 202.623 130.784 201.89 127.087 201.061 126.967 200.524 126.603 200.356 126.095 200.404 126.095 200.404 126.109 200.418 126.109 200.418 125.462 198.246 123.602 196.909 122.164 195.466 109.066 182.306 109.838 158.963 118.165 144.672 127.135 129.283 140.909 121.191 157.851 117.413 163.954 116.051 168.499 118.252 172.727 122.169 175.767 124.983 178.897 127.691 181.942 130.501 183.044 131.517 184.013 132.687 185.043 133.789 185.115 135.333 185.82 136.695 186.285 138.123 189.123 146.815 189.713 155.612 188.044 164.635 187.225 169.069 185.465 173.087 183.61 177.104 177.708 182.013 172.89 187.814 169.381 194.67Z" fill="#FEA0BD" transform="matrix(6.13366e-17 1.0017 -1 6.12323e-17 1162.98 399.856)"/><path d="M282.858 185.921C283.821 188.797 286.616 189.881 288.601 191.746 298.693 201.214 307.514 211.536 309.556 225.837 311.603 240.161 307.782 252.789 296.655 262.425 288.697 269.319 279.133 272.795 268.59 273.806 261.27 274.506 254.237 273.452 247.194 271.726 243.469 270.815 239.586 271.616 235.799 270.911 233.195 270.427 230.669 269.693 227.821 270.144 224.451 270.681 222.596 272.761 220.927 275.154 215.989 282.235 209.714 287.925 202.897 293.108 200.572 294.877 197.772 295.241 195.125 295.989 184.037 299.115 172.708 300.869 161.193 300.03 150.238 299.234 140.472 295.299 132.658 287.24 131.929 286.487 131.263 285.705 130.865 284.727 130.712 284.579 130.553 284.43 130.4 284.277 130.4 284.277 130.429 284.315 130.429 284.315 130.482 281.669 129.628 279.128 129.489 276.515 128.943 266.467 130.093 256.639 133.617 247.161 137.778 235.971 142.649 225.208 152.103 217.284 157.813 212.504 164.184 209.004 171.462 207.259 172.737 206.952 173.931 206.804 174.688 208.376 176.567 212.269 179.233 215.673 181.735 219.168 182.886 220.779 184.449 221.881 186.319 222.687 183.504 217.931 181.831 212.782 181.026 207.456 180.101 201.367 181.304 195.595 186.261 191.41 194.406 184.535 203.99 180.431 214.244 177.934 225.884 175.096 237.721 174.832 249.615 175.92 257.583 176.649 265.316 178.312 272.828 181.117 276.275 182.402 279.416 184.329 282.877 185.556 282.877 185.556 282.853 185.532 282.853 185.532 282.863 185.657 282.867 185.786 282.858 185.921Z" fill="#FEA0BD" transform="matrix(6.13366e-17 1.0017 -1 6.12323e-17 1162.98 399.856)"/><path d="M403.185 235.43C402.965 240.104 400.793 243.992 397.974 247.487 391.392 255.642 382.518 259.285 372.297 260.373 363.011 261.361 354.957 258.691 348.216 252.449 343.585 248.163 341.173 242.626 340.306 236.278 339.476 230.238 340.119 224.403 341.442 218.554 342.051 218.386 342.698 218.295 343.264 218.036 350.503 214.714 358.116 213.559 366.036 213.779 375.921 214.053 385.04 216.608 393.094 222.452 397.691 225.784 401.263 229.983 403.185 235.43Z" fill="#FEA0BD" transform="matrix(6.13366e-17 1.0017 -1 6.12323e-17 1162.98 399.856)"/><path d="M554.516 318.329C554.718 318.162 554.914 317.989 555.116 317.821 554.919 317.989 554.718 318.162 554.516 318.329Z" fill="#FEA0BD" transform="matrix(6.13366e-17 1.0017 -1 6.12323e-17 1162.98 399.856)"/><path d="M397.888 427.094C399.12 423.393 400.4 419.759 403.042 416.71 406.417 412.822 410.549 410.396 415.564 409.413 419.787 408.588 423.714 409.542 427.583 411.244 433.949 414.049 435.977 419.495 436.73 425.79 436.936 427.496 436.212 429.275 437.152 430.919 433.57 435.263 429.467 438.935 423.45 440.997 427.07 443.058 428.273 446.016 428.915 449.391 429.865 454.367 426.197 458.011 421.192 457.047 418.795 456.587 416.59 455.858 414.615 454.425 410.995 451.793 411.029 446.989 414.691 444.367 415.382 443.873 416.072 443.384 417.141 442.622 411.019 442.09 406.249 439.798 402.509 435.397 400.4 432.914 399.158 430.008 397.888 427.094Z" fill="#FEA0BD" transform="matrix(6.13366e-17 1.0017 -1 6.12323e-17 1162.98 399.856)"/><path d="M498.593 236.398C500.937 237.088 502.04 239.308 503.843 240.67 503.843 240.67 503.828 240.65 503.828 240.65 503.814 241.072 503.953 241.413 504.346 241.619 504.346 241.619 504.327 241.59 504.327 241.59 504.461 241.791 504.595 241.988 504.73 242.189 507.021 249.73 506.005 256.744 501.354 263.173 499.715 264.539 498.583 266.366 496.886 267.747 494.446 269.727 491.498 270.709 488.966 272.459 488.727 272.464 488.473 272.416 488.252 272.478 480.759 274.564 473.86 273.26 467.594 268.729 466.396 267.862 465.331 267.795 464.032 268.241 461.616 269.065 459.157 269.899 456.597 269.952 454.257 270 453.198 270.94 452.435 273.193 444.971 295.183 422.137 308.88 399.364 305.045 384.45 302.533 373.308 294.402 365.35 281.693 363.452 278.663 360.623 278.744 358.873 281.894 357.632 284.123 356.352 286.338 355.249 288.635 343.753 312.529 338.69 337.865 338.436 364.262 331.753 364.626 325.07 364.962 318.392 365.365 313.861 365.638 309.302 365.758 304.815 366.367 295.97 367.57 287.072 368.275 278.179 368.509 266.783 368.811 255.359 369.114 243.963 368.145 244.946 362.009 245.746 355.843 245.895 349.625 246.283 333.474 243.052 317.97 237.414 302.897 236.964 301.699 236.393 301.119 235.08 300.951 227.725 300.021 220.807 297.638 214.249 294.253 212.504 293.352 211.176 293.275 209.412 294.316 201.07 299.225 192.311 303.156 182.718 304.987 174.439 306.565 166.174 306.804 157.794 305.544 145.535 303.698 134.624 298.913 124.762 291.53 120.337 288.218 116.646 284.133 112.782 280.231 112.619 279.794 112.566 279.262 112.278 278.941 109.958 276.338 108.179 273.365 106.314 270.446 105.217 268.725 104.756 266.649 103.275 265.158 102.11 262.142 100.523 259.285 99.8759 256.073 100.327 255.939 100.82 255.881 101.223 255.661 107.211 252.396 112.571 248.354 116.842 242.975 122.039 236.436 125.064 229.087 125.146 220.644 125.203 214.93 123.851 209.493 122.039 204.119 121.411 202.264 120.203 200.552 120.366 198.457 122.418 198.707 124 200.327 126.1 200.428 126.1 200.428 126.085 200.413 126.085 200.413 126.248 200.883 126.718 200.893 127.078 201.07 130.774 201.899 134.456 202.633 138.272 202.954 144.965 203.515 151.369 202.609 157.645 200.437 161.782 199.004 165.57 196.818 169.371 194.68 169.136 196.813 168.269 198.822 168.178 200.998 168.13 202.216 167.315 202.983 166.068 203.189 160.138 204.167 154.673 206.305 149.447 209.306 142.361 213.377 136.513 218.722 131.651 225.232 126.694 231.868 124.321 239.6 122.197 247.429 120.649 253.139 119.604 258.873 121.306 264.818 123.31 271.827 125.52 278.692 130.424 284.32L130.395 284.282C130.549 284.43 130.707 284.579 130.86 284.732 131.258 285.715 131.92 286.492 132.653 287.244 140.463 295.303 150.228 299.239 161.188 300.035 172.708 300.874 184.032 299.119 195.121 295.994 197.767 295.246 200.567 294.881 202.892 293.112 209.709 287.93 215.985 282.239 220.923 275.158 222.591 272.766 224.446 270.685 227.816 270.149 230.664 269.698 233.186 270.431 235.794 270.916 239.581 271.62 243.464 270.82 247.19 271.731 254.232 273.457 261.27 274.511 268.586 273.811 279.128 272.8 288.692 269.324 296.65 262.43 307.778 252.794 311.599 240.166 309.551 225.841 307.509 211.54 298.688 201.224 288.596 191.75 286.612 189.89 283.812 188.802 282.853 185.925 283.054 185.873 283.26 185.82 283.462 185.762 283.256 185.686 283.049 185.609 282.843 185.532L282.867 185.556C282.33 183.754 280.744 182.872 279.473 181.721 273.466 176.294 266.299 172.655 259.347 168.681 259.63 168.556 259.918 168.312 260.196 168.321 271.606 168.743 282.901 167.564 294.167 165.91 303.285 164.568 312.394 163.019 321.177 160.287 332.736 156.691 344.079 152.424 354.63 146.326 357.052 144.926 357.157 145.027 357.114 147.865 356.994 156.24 359.19 164.079 362.641 171.605 366.64 180.321 372.604 187.527 380.13 193.385 389.623 200.773 400.52 204.738 412.462 205.639 418.666 206.109 424.869 205.653 430.924 204.004 432.247 203.645 432.645 203.659 432.506 205.375 431.552 217.097 434.486 227.721 442.468 236.527 454.828 250.162 474.992 252.942 490.414 243.479 493.492 241.595 496.771 239.792 498.593 236.398ZM403.185 235.43C404.063 235.012 404.077 234.217 404.13 233.402 404.71 224.053 400.99 216.359 394.618 209.925 390.284 205.543 385.03 202.47 378.922 201.008 372.762 199.531 366.712 198.649 360.58 201.358 352.291 205.025 345.143 209.843 341.442 218.559 340.119 224.403 339.476 230.242 340.306 236.283 341.178 242.63 343.59 248.168 348.216 252.453 354.957 258.695 363.011 261.366 372.297 260.378 382.518 259.29 391.392 255.646 397.974 247.492 400.793 243.992 402.97 240.104 403.185 235.43Z" fill="#FE6E98" transform="matrix(6.13366e-17 1.0017 -1 6.12323e-17 1162.98 399.856)"/><path d="M339.371 381.602C340.507 393.324 343.379 404.633 347.401 415.679 352.871 430.704 361.472 443.696 372.757 454.962 374.114 456.319 375.456 457.671 376.324 459.43 377.081 460.969 376.961 461.741 375.001 462.234 363.859 465.034 352.598 467.158 341.26 468.985 321.551 472.154 301.747 474.344 281.774 474.546 261.999 474.742 242.415 473.136 223.348 467.388 216.234 465.24 209.33 462.527 202.551 459.516 200.629 458.663 200.332 456.51 199.991 454.703 199.373 451.438 200.351 448.547 202.647 446.121 213.348 434.827 222.591 422.458 229.835 408.66 235.228 398.386 239.193 387.552 242.098 376.324 244.347 376.799 246.595 377.278 248.848 377.743 258.552 379.761 268.293 381.607 278.121 382.873 283.141 383.52 288.103 385.064 293.251 384.44 296.022 384.105 298.793 384.009 301.579 383.966 305.951 383.894 310.347 383.87 314.686 383.405 317.15 383.141 319.609 383.179 322.059 382.954 327.822 382.408 333.57 381.655 339.371 381.602Z" fill="#FE6E98" transform="matrix(6.13366e-17 1.0017 -1 6.12323e-17 1162.98 399.856)"/><path d="M145.684 489.388C142.194 489.403 138.703 489.422 135.213 489.436 125.011 489.297 116.027 482.945 112.738 473.549 111.516 470.058 111.516 470.058 107.983 470.557 109.392 467.532 111.032 464.641 113.064 462 116.761 457.201 117.787 451.874 116.492 446.021 115.869 443.197 114.229 440.814 113.156 438.187 114.445 438.35 115.447 439.098 116.516 439.75 117.235 440.186 118.022 441.126 118.99 440.081 119.613 440.162 120.26 440.182 120.865 440.34 125.457 441.557 129.964 441.275 134.446 439.755 143.08 436.83 148.033 430.301 151.537 422.367 152.084 421.13 152.549 420.521 153.613 421.825 156.077 424.845 159.356 425.593 163.038 425.229 163.369 425.718 163.686 425.742 163.992 425.205L163.964 425.224C165.426 425.363 166.572 424.759 167.578 423.757 168.705 422.64 169.86 421.542 171.001 420.439 171.505 428.733 165.411 435.325 157.113 435.287 155.468 435.277 154.476 435.733 153.647 437.132 152.386 439.256 150.598 440.977 148.757 442.684 162.947 450.187 167.876 458.222 165.833 470.337 164.179 480.188 155.948 487.969 145.684 489.388Z" fill="#FE6E98" transform="matrix(6.13366e-17 1.0017 -1 6.12323e-17 1162.98 399.856)"/><path d="M448.768 436.663C448.744 437.166 448.715 437.674 448.691 438.178 447.977 438.149 447.219 438.264 446.553 438.072 441.361 436.552 436.006 439.611 433.604 444.52 432.765 446.237 431.821 448.092 432.861 450.125 432.679 457.277 435.411 462.839 441.931 466.142 447.191 468.802 454.899 467.676 457.953 461.3 458.773 459.593 459.353 459.775 460.691 460.878 468.884 467.623 478.165 469.948 488.554 467.316 489.532 467.067 490.501 466.439 491.416 467.431 483.645 474.292 474.718 476.794 464.564 474.431 463.136 474.1 461.98 474.181 460.691 474.853 448.677 481.08 433.398 475.514 428.249 462.982 427.53 461.228 427.012 460.868 425.224 461.808 420.166 464.454 414.03 463.668 410.007 460.149 405.3 456.031 403.948 450.901 405.683 445.009 406.119 443.533 405.789 442.895 404.638 442.099 401.138 439.683 398.607 436.413 396.948 432.516 396.469 431.389 395.889 430.986 394.657 430.948 388.415 430.766 384.762 426.566 385.404 420.459 385.946 415.3 390.687 412.078 396.459 412.941 395.601 417.793 395.611 422.554 397.883 427.089 399.154 430.004 400.395 432.909 402.505 435.392 406.244 439.798 411.019 442.085 417.136 442.617 416.067 443.379 415.377 443.868 414.686 444.362 411.019 446.989 410.99 451.788 414.61 454.42 416.585 455.854 418.795 456.587 421.187 457.042 426.192 458.001 429.865 454.363 428.911 449.386 428.263 446.006 427.065 443.053 423.445 440.992 429.462 438.93 433.566 435.258 437.147 430.915 440.886 425.933 441.476 420.041 442.018 414.135 443.427 416.604 443.643 419.346 443.926 422.089 444.022 423.014 443.326 424.332 444.77 424.725 446.356 425.157 447.862 426.955 449.66 425.181 449.573 425.885 449.453 426.59 449.41 427.3 449.218 430.426 448.068 433.479 448.768 436.663Z" fill="#FE6E98" transform="matrix(6.13366e-17 1.0017 -1 6.12323e-17 1162.98 399.856)"/><path d="M180.916 424.246C176.261 424.212 172.646 420.669 172.641 416.129 172.636 411.527 176.385 407.932 181.146 407.979 185.815 408.023 189.401 411.565 189.396 416.12 189.396 420.799 185.758 424.279 180.916 424.246Z" fill="#FE6E98" transform="matrix(6.13366e-17 1.0017 -1 6.12323e-17 1162.98 399.856)"/><path d="M102.599 428.498C102.187 426.269 100.202 425.929 98.5623 425.286 97.5603 424.898 96.4097 424.884 95.4317 424.327 95.5564 424.236 95.6762 424.069 95.8057 424.059 99.7081 423.805 102.613 422.563 102.067 417.841 101.942 421.873 104.387 425.214 105.049 429.03 104.234 428.858 103.414 428.676 102.599 428.498Z" fill="#FE6E98" transform="matrix(6.13366e-17 1.0017 -1 6.12323e-17 1162.98 399.856)"/><path d="M450.11 424.591C449.952 424.797 449.799 425.008 449.64 425.214 449.799 425.003 449.957 424.797 450.11 424.591Z" fill="#FE6E98" transform="matrix(6.13366e-17 1.0017 -1 6.12323e-17 1162.98 399.856)"/><path d="M183.615 177.104C185.475 173.082 187.229 169.069 188.049 164.635 189.718 155.612 189.128 146.815 186.29 138.123 185.825 136.695 185.12 135.333 185.048 133.789 187.33 134.954 188.337 137.658 190.82 138.588 190.82 138.588 190.806 138.569 190.806 138.569 190.82 138.886 191.007 139.039 191.304 139.073 191.304 139.073 191.276 139.044 191.276 139.044 191.429 139.202 191.583 139.36 191.731 139.514 193.002 142.448 195.797 143.876 198.079 145.76 207.983 153.93 219.796 158.081 231.906 161.567 232.27 161.672 232.62 161.849 232.975 161.993 232.256 162.012 231.542 162.065 230.822 162.046 216.723 161.662 203.611 165.268 191.165 171.701 188.366 173.144 186.4 175.68 183.615 177.104Z" fill="#FE6E98" transform="matrix(6.13366e-17 1.0017 -1 6.12323e-17 1162.98 399.856)"/><path d="M120.385 198.481C120.232 198.337 120.073 198.194 119.92 198.05 120.073 198.194 120.227 198.337 120.385 198.481Z" fill="#FE6E98" transform="matrix(6.13366e-17 1.0017 -1 6.12323e-17 1162.98 399.856)"/><path d="M448.734 439.06C448.715 438.753 448.696 438.451 448.677 438.144 449.171 438.422 449.223 438.724 448.734 439.06Z" fill="#FE6E98" transform="matrix(6.13366e-17 1.0017 -1 6.12323e-17 1162.98 399.856)"/><path d="M105.02 429.011C105.169 429.179 105.317 429.347 105.466 429.519 105.317 429.352 105.169 429.184 105.02 429.011Z" fill="#FE6E98" transform="matrix(6.13366e-17 1.0017 -1 6.12323e-17 1162.98 399.856)"/><path d="M360.964 137.586C361.625 134.389 363.715 131.901 365.235 129.139 368.073 124 371.367 119.11 373.687 113.63 374.047 115.577 373.352 117.408 372.915 119.206 371.496 125.021 369.861 130.784 365.206 135.041 363.974 136.167 362.704 137.26 360.997 137.625L360.964 137.586Z" fill="#FE6E98" transform="matrix(6.13366e-17 1.0017 -1 6.12323e-17 1162.98 399.856)"/><path d="M360.997 137.63C360.825 137.745 360.652 137.86 360.47 137.965 360.465 137.97 360.388 137.855 360.345 137.793 360.551 137.725 360.757 137.658 360.964 137.586 360.964 137.586 360.997 137.63 360.997 137.63Z" fill="#FE6E98" transform="matrix(6.13366e-17 1.0017 -1 6.12323e-17 1162.98 399.856)"/><path d="M101.146 178.351C98.3226 167.938 98.6342 157.554 101.717 147.271 107.173 129.058 118.88 116.281 136.081 108.486 140.357 106.549 144.888 105.159 149.581 104.593 151.187 104.402 151.815 103.601 152.017 102.187 153.364 92.7566 156.245 83.7628 159.644 74.8985 162.545 67.3382 166.62 60.4586 171.016 53.7133 178.811 41.752 188.663 31.7179 200.068 23.2754 207.111 18.0594 214.594 13.3612 222.763 10.0772 233.531 5.74815 244.529 2.13338 256.188 0.87253 258.019 0.675971 260.023 1.05471 261.759 0.0479412 268.149 0.0479412 274.54 0.0479412 280.931 0.0479412 283.884 0.508177 286.827 1.03074 289.79 1.41906 299.397 2.67991 308.525 5.6235 317.481 9.20471 333.201 15.4898 346.687 25.078 358.427 37.1592 368.404 47.4282 376.161 59.2553 382.077 72.257 383.951 76.3703 385.332 80.7234 386.703 85.0429 387.183 86.5578 387.82 86.8742 389.244 86.716 401.1 85.3832 412.543 87.0324 423.603 91.491 433.757 95.5851 442.444 101.755 449.88 109.761 456.99 117.418 461.861 126.344 465.466 136.095 468.491 144.279 470.763 152.63 471.564 161.298 472.01 166.116 472.125 171.016 471.353 175.858 471.017 177.953 471.252 179.511 473.472 180.757 481.075 185.029 487.03 191.094 491.292 198.692 494.427 204.277 496.637 210.198 497.193 216.704 497.524 220.534 497.797 224.312 497.14 228.119 496.834 229.888 497.366 231.268 498.79 232.539 501.244 234.725 503.287 237.266 503.838 240.679 502.035 239.318 500.933 237.103 498.588 236.408 494.796 233.828 490.549 232.673 486.018 232.543 483.276 232.462 483.362 232.548 483.861 229.782 484.383 226.896 484.939 223.986 485.083 221.066 485.596 210.399 482.571 200.61 477.259 191.463 475.778 188.912 474.287 186.242 472.014 184.406 470.006 182.785 469.464 181.112 470.054 178.801 471.027 174.99 471.204 171.011 470.984 167.2 470.581 160.387 468.011 154.03 465.068 147.913 459.315 135.956 451.194 125.841 441.092 117.245 429.86 107.685 417.227 100.806 402.955 97.0905 395.4 95.1201 387.743 93.6723 379.843 94.8708 378.687 95.0482 377.556 94.588 376.89 93.3031 375.864 91.3232 374.66 89.4391 373.543 87.507 368.672 79.1125 362.689 71.5187 355.824 64.7446 349.999 58.9916 343.546 53.9338 336.653 49.3746 325.262 41.8431 312.855 36.7469 299.767 33.3527 288.333 30.3899 276.64 29.3784 264.76 30.1119 257.737 30.5481 250.804 31.3008 244.001 32.9548 234.567 35.2464 226.455 40.4672 218.214 45.3044 212.715 48.5309 208.803 53.627 204.469 58.1622 199.737 63.1146 195.547 68.5559 192.575 74.7786 189.478 81.2651 187.167 88.044 185.734 95.1009 183.878 104.224 183.476 113.367 185 122.605 185.945 128.334 187.795 133.665 190.82 138.598 188.342 137.668 187.33 134.969 185.048 133.799 184.017 132.701 183.054 131.531 181.946 130.51 178.902 127.701 175.772 124.992 172.732 122.178 168.504 118.266 163.959 116.066 157.856 117.422 140.909 121.2 127.14 129.293 118.17 144.682 109.843 158.968 109.071 182.316 122.169 195.475 123.602 196.918 125.467 198.256 126.114 200.428 124.009 200.327 122.432 198.707 120.38 198.457 120.38 198.457 120.395 198.491 120.395 198.491 120.241 198.347 120.083 198.203 119.93 198.059 111.66 193.39 104.967 187.239 101.146 178.351Z" fill="#FEF089" transform="matrix(6.13366e-17 1.0017 -1 6.12323e-17 1162.98 399.856)"/><path d="M243.963 368.14C255.359 369.109 266.783 368.807 278.179 368.505 287.072 368.27 295.97 367.565 304.815 366.362 309.302 365.753 313.861 365.628 318.392 365.36 325.07 364.957 331.758 364.621 338.436 364.262 340.368 364.602 342.233 363.931 344.141 363.859 350.829 363.61 357.507 363.154 364.19 362.972 376.137 362.646 388.079 362.138 400.012 361.448 405.256 361.146 410.511 360.935 415.736 360.412 427.204 359.266 438.681 358.188 450.053 356.222 461.688 354.209 473.122 351.505 484.22 347.377 490.956 344.87 497.246 341.37 504.006 338.935 512.045 336.039 520.531 334.927 528.724 332.664 538.456 329.979 548.068 326.973 554.516 318.334 554.718 318.166 554.914 317.994 555.116 317.826L555.097 317.84C557.858 316.527 559.157 314.01 560.384 311.431 561.669 308.727 561.305 305.831 561.362 302.983 563.079 304.527 564.445 306.354 565.658 308.3 565.553 311.694 565.97 315.093 564.718 318.44 562.595 324.116 558.27 327.836 553.654 331.24 545.532 337.223 536.419 341.37 527.133 345.2 522.367 347.166 517.362 348.528 512.774 350.929 512.774 350.929 512.64 350.925 512.64 350.929 512.045 350.934 511.422 350.829 511.01 351.423 511.01 351.423 511.043 351.404 511.043 351.404 510.502 351.414 509.941 351.356 509.572 351.888 500.664 354.616 491.584 356.625 482.49 358.59 467.34 361.865 452.061 364.43 436.797 367.095 433.125 367.738 429.414 368.169 425.722 368.696 416.609 369.291 407.505 370.082 398.353 369.674 390.212 369.31 382.177 370.557 374.128 371.496 360.24 373.112 346.653 376.463 332.851 378.558 329.092 379.128 325.252 379.694 321.479 379.541 312.672 379.181 303.88 378.381 295.083 377.772 290.006 377.422 284.919 377.192 279.852 376.741 270.345 375.897 260.838 375.149 251.293 374.886 249.069 374.823 246.849 374.761 244.62 374.564 242.055 374.339 239.394 374.013 236.829 374.852 229.844 373.352 222.864 371.827 215.87 370.365 208.861 368.903 201.732 368.351 194.622 367.699 185.925 366.899 177.234 366.098 168.528 365.393 162.986 364.943 157.42 364.78 151.878 364.291 144.869 363.667 137.812 363.413 130.879 362.042 127.385 359.918 123.42 358.94 119.599 357.704 107.115 353.662 94.4058 350.412 81.5911 347.564 68.0909 344.568 54.5139 341.859 41.3684 337.463 28.6736 333.22 17.0527 327.127 7.55553 317.462 4.98588 314.844 3.00591 311.781 0.915677 308.799 0.143824 307.02 0.258882 305.141 1.06429 303.535 3.31274 299.043 6.27071 295.083 10.595 292.321 10.4799 293.103 10.3745 293.884 10.2402 294.661 9.54509 298.789 11.223 305.544 16.3144 307.782 28.1846 318.636 42.5814 325.108 57.1699 331.211 61.5421 333.038 65.3726 335.799 69.4907 338.062 81.4377 344.63 94.0366 349.525 107.096 353.303 120.649 357.224 134.461 359.966 148.426 361.855 158.436 363.212 168.499 364.161 178.586 364.88 189.708 365.671 200.83 366.338 211.967 366.832 222.639 367.292 233.287 368.064 243.963 368.14Z" fill="#FEF08A" transform="matrix(6.13366e-17 1.0017 -1 6.12323e-17 1162.98 399.856)"/><path d="M98.2794 178.279C86.553 181.424 77.7222 188.433 71.3988 198.663 65.8472 207.648 63.92 217.552 64.8261 227.951 65.4301 234.869 67.8272 241.259 72.0987 246.849 72.5782 247.477 72.9521 248.177 73.3788 248.848 71.1687 248.561 69.7304 246.911 68.2203 245.607 59.2026 237.841 54.2694 227.884 54.4084 216.028 54.5571 203.256 60.123 192.872 70.4112 185.12 76.8018 180.302 84.1032 178.106 91.956 177.497 94.0846 177.334 96.2179 177.627 98.2794 178.279Z" fill="#FEF08A" transform="matrix(6.13366e-17 1.0017 -1 6.12323e-17 1162.98 399.856)"/><path d="M442.022 414.14C441.486 420.046 440.891 425.943 437.152 430.919 436.212 429.275 436.936 427.496 436.73 425.79 435.977 419.495 433.949 414.049 427.583 411.244 423.719 409.542 419.787 408.588 415.564 409.413 410.544 410.396 406.412 412.817 403.042 416.71 400.4 419.759 399.12 423.393 397.888 427.094 395.611 422.558 395.601 417.793 396.464 412.946 398.573 412.035 398.871 409.705 400.165 408.138 404.24 403.214 409.47 400.41 415.597 399.417 426.624 397.629 436.183 402.548 441.399 412.371 441.692 412.913 441.816 413.545 442.022 414.14Z" fill="#FEF08A" transform="matrix(6.13366e-17 1.0017 -1 6.12323e-17 1162.98 399.856)"/><path d="M113.156 438.182C110.37 435.493 107.503 432.871 105.466 429.519 105.317 429.352 105.169 429.184 105.02 429.011 105.02 429.011 105.049 429.03 105.049 429.03 104.392 425.214 101.942 421.873 102.067 417.846 102.695 406.158 113.525 394.7 125.294 393.075 135.199 391.708 143.67 394.379 150.674 401.551 151 401.886 151.24 402.303 151.523 402.682 150.233 402.907 149.505 401.872 148.579 401.325 139.571 396.009 130.429 396.435 121.282 400.812 118.865 401.968 117.782 404.48 116.847 406.853 112.379 418.244 111.852 429.414 118.99 440.071 118.022 441.116 117.235 440.172 116.516 439.74 115.447 439.098 114.445 438.345 113.156 438.182Z" fill="#FEF08A" transform="matrix(6.13366e-17 1.0017 -1 6.12323e-17 1162.98 399.856)"/><path d="M448.768 436.663C448.063 433.479 449.218 430.426 449.41 427.305 449.453 426.595 449.573 425.895 449.66 425.186 449.66 425.186 449.64 425.21 449.64 425.21 449.799 425.003 449.952 424.792 450.11 424.586 454.645 418.335 459.919 413.258 467.892 411.498 483.185 408.123 498.742 418.023 501.8 433.369 501.954 434.141 501.896 434.956 501.935 435.752 497.327 426.557 488.569 424.088 479.594 422.415 470.145 420.655 462.019 424.059 454.66 429.908 452.239 431.84 450.853 434.524 448.768 436.663Z" fill="#FEF08A" transform="matrix(6.13366e-17 1.0017 -1 6.12323e-17 1162.98 399.856)"/><path d="M102.599 428.498C91.8361 428.599 83.7437 438.398 85.6086 449.755 87.0564 458.577 92.4642 464.377 99.6026 468.989 100.466 469.546 101.295 470.15 102.143 470.734 92.0087 470.423 81.15 462.22 79.4529 450.211 77.8661 438.973 84.7552 427.391 95.4317 424.337 96.4049 424.893 97.5555 424.903 98.5623 425.296 100.202 425.929 102.187 426.269 102.599 428.498Z" fill="#FEF08A" transform="matrix(6.13366e-17 1.0017 -1 6.12323e-17 1162.98 399.856)"/><path d="M163.968 425.224C164.371 424.74 164.731 424.208 165.186 423.781 169.592 419.624 168.274 415.899 164.304 412.515 161.533 410.156 158.192 409.226 154.514 410.204 154.212 410.285 153.896 410.333 153.651 409.95 153.412 408.814 155.91 408.948 154.917 407.419 161.025 407.001 165.9 409.106 169.204 414.413 170.349 416.254 170.968 418.268 171.006 420.444 169.865 421.547 168.71 422.64 167.583 423.762 166.576 424.759 165.431 425.363 163.968 425.224Z" fill="#FEF08A" transform="matrix(6.13366e-17 1.0017 -1 6.12323e-17 1162.98 399.856)"/><path d="M502.356 437.118C501.829 436.773 501.949 436.222 501.925 435.718 502.476 436.063 502.352 436.61 502.356 437.118Z" fill="#FEF08A" transform="matrix(6.13366e-17 1.0017 -1 6.12323e-17 1162.98 399.856)"/><path d="M152.017 403.636C151.566 403.463 151.441 403.113 151.509 402.668 151.95 402.85 152.074 403.195 152.017 403.636Z" fill="#FEF08A" transform="matrix(6.13366e-17 1.0017 -1 6.12323e-17 1162.98 399.856)"/><path d="M504.346 241.619C503.953 241.413 503.814 241.072 503.828 240.65 504.312 240.809 504.356 241.197 504.346 241.619Z" fill="#FEF089" transform="matrix(6.13366e-17 1.0017 -1 6.12323e-17 1162.98 399.856)"/><path d="M152.496 404.115C152.328 403.948 152.165 403.785 151.998 403.617 152.161 403.785 152.328 403.948 152.496 404.115Z" fill="#FEF08A" transform="matrix(6.13366e-17 1.0017 -1 6.12323e-17 1162.98 399.856)"/><path d="M152.956 404.657C152.793 404.47 152.635 404.283 152.472 404.091 152.635 404.283 152.798 404.47 152.956 404.657Z" fill="#FEF08A" transform="matrix(6.13366e-17 1.0017 -1 6.12323e-17 1162.98 399.856)"/><path d="M504.73 242.189C504.595 241.988 504.461 241.791 504.327 241.59 504.456 241.791 504.595 241.988 504.73 242.189Z" fill="#FEF089" transform="matrix(6.13366e-17 1.0017 -1 6.12323e-17 1162.98 399.856)"/><path d="M73.3548 248.82C73.4986 248.997 73.6424 249.169 73.7863 249.347 73.6424 249.169 73.4986 248.997 73.3548 248.82Z" fill="#FEF08A" transform="matrix(6.13366e-17 1.0017 -1 6.12323e-17 1162.98 399.856)"/><path d="M282.872 185.552C279.411 184.324 276.271 182.397 272.824 181.112 265.311 178.312 257.578 176.644 249.611 175.915 237.716 174.827 225.884 175.096 214.24 177.929 203.985 180.427 194.401 184.535 186.256 191.405 181.299 195.59 180.096 201.363 181.021 207.451 181.827 212.777 183.5 217.926 186.314 222.682 184.444 221.877 182.881 220.774 181.731 219.163 179.228 215.663 176.567 212.264 174.683 208.372 173.926 206.799 172.727 206.948 171.457 207.255 164.184 209 157.808 212.499 152.098 217.279 142.644 225.199 137.773 235.966 133.612 247.156 130.088 256.629 128.938 266.462 129.484 276.51 129.628 279.123 130.482 281.664 130.424 284.31 125.52 278.682 123.31 271.812 121.306 264.808 119.604 258.863 120.649 253.129 122.197 247.42 124.321 239.596 126.699 231.858 131.651 225.223 136.513 218.712 142.366 213.367 149.447 209.297 154.668 206.296 160.133 204.153 166.068 203.18 167.315 202.973 168.13 202.206 168.178 200.989 168.264 198.812 169.132 196.803 169.371 194.67 172.881 187.814 177.699 182.018 183.605 177.104 186.391 175.685 188.356 173.149 191.156 171.701 203.606 165.272 216.718 161.662 230.813 162.046 231.527 162.065 232.246 162.012 232.965 161.993 242.204 162.473 251.03 164.549 259.343 168.681 266.294 172.651 273.461 176.289 279.464 181.716 280.744 182.867 282.33 183.749 282.872 185.552Z" fill="#FEF089" transform="matrix(6.13366e-17 1.0017 -1 6.12323e-17 1162.98 399.856)"/><path d="M403.185 235.43C401.263 229.983 397.691 225.784 393.094 222.452 385.04 216.608 375.916 214.053 366.036 213.779 358.116 213.559 350.498 214.714 343.264 218.036 342.698 218.295 342.051 218.386 341.442 218.554 345.143 209.839 352.291 205.02 360.58 201.353 366.712 198.639 372.762 199.522 378.922 201.003 385.035 202.47 390.284 205.543 394.618 209.92 400.99 216.359 404.715 224.048 404.13 233.397 404.077 234.217 404.063 235.017 403.185 235.43Z" fill="#FEF089" transform="matrix(6.13366e-17 1.0017 -1 6.12323e-17 1162.98 399.856)"/><path d="M282.858 185.921C282.867 185.791 282.867 185.657 282.848 185.528 283.054 185.604 283.26 185.681 283.467 185.758 283.26 185.81 283.059 185.868 282.858 185.921Z" fill="#FEF089" transform="matrix(6.13366e-17 1.0017 -1 6.12323e-17 1162.98 399.856)"/><path d="M126.095 200.404C126.598 200.356 126.967 200.524 127.087 201.061 126.728 200.888 126.258 200.874 126.095 200.404Z" fill="#FEF089" transform="matrix(6.13366e-17 1.0017 -1 6.12323e-17 1162.98 399.856)"/><path d="M130.4 284.272C130.553 284.421 130.712 284.574 130.865 284.723 130.712 284.569 130.553 284.421 130.4 284.272Z" fill="#FEF089" transform="matrix(6.13366e-17 1.0017 -1 6.12323e-17 1162.98 399.856)"/><path d="M163.043 425.229C163.36 425.219 163.681 425.214 163.997 425.205 163.69 425.742 163.374 425.718 163.043 425.229Z" fill="#FEF08A" transform="matrix(6.13366e-17 1.0017 -1 6.12323e-17 1162.98 399.856)"/><path d="M432.861 450.125C431.821 448.092 432.765 446.237 433.604 444.52 436.006 439.611 441.361 436.552 446.553 438.072 447.219 438.269 447.977 438.154 448.691 438.178 448.691 438.178 448.677 438.144 448.677 438.144 448.696 438.451 448.715 438.753 448.734 439.06 448.528 440.771 448.998 442.396 449.636 443.921 450.561 446.136 449.127 446.021 447.852 445.752 443.883 444.913 440.158 445.661 436.524 447.238 435.052 447.881 433.681 448.658 432.861 450.125Z" fill="#FEF08A" transform="matrix(6.13366e-17 1.0017 -1 6.12323e-17 1162.98 399.856)"/><path d="M191.736 139.514C191.583 139.355 191.429 139.197 191.281 139.044 191.429 139.197 191.583 139.355 191.736 139.514Z" fill="#FEF089" transform="matrix(6.13366e-17 1.0017 -1 6.12323e-17 1162.98 399.856)"/><path d="M191.304 139.073C191.002 139.034 190.82 138.886 190.806 138.569 190.974 138.737 191.137 138.905 191.304 139.073Z" fill="#FEF089" transform="matrix(6.13366e-17 1.0017 -1 6.12323e-17 1162.98 399.856)"/></g></svg>