<svg width="198" height="207" xmlns="http://www.w3.org/2000/svg" xmlns:xlink="http://www.w3.org/1999/xlink" xml:space="preserve" overflow="hidden"><defs><clipPath id="clip0"><path d="M540.105 796.654 641.858 722.498 737.854 854.217 636.101 928.373Z" fill-rule="evenodd" clip-rule="evenodd"/></clipPath><clipPath id="clip1"><path d="M540.105 796.654 641.858 722.498 737.854 854.217 636.101 928.373Z" fill-rule="evenodd" clip-rule="evenodd"/></clipPath><clipPath id="clip2"><path d="M540.105 796.654 641.858 722.498 737.854 854.217 636.101 928.373Z" fill-rule="evenodd" clip-rule="evenodd"/></clipPath></defs><g transform="translate(-540 -722)"><g clip-path="url(#clip0)"><g clip-path="url(#clip1)"><g clip-path="url(#clip2)"><path d="M103.873 58.4358 102.854 58.4358 102.854 80.7451 97.4899 80.7451 97.4899 55.7537C97.4899 52.4819 94.522 51.2629 92.6514 51.2629L80.643 51.2629 80.643 73.2975 75.2795 73.2975 75.2795 48.5812C75.2795 46.4212 72.2813 43.6873 70.4442 43.6873L58.3196 43.6873 58.3196 73.2982 52.9572 73.2982 52.9572 6.69175 36.111 6.3613 36.111 88.2768 30.7461 88.2768 30.7461 86.1503 30.4379 85.85C25.593 81.1327 17.4367 73.8512 14.8254 73.1274L14.6895 73.0897 6.38431 73.1307 6.38431 84.2531 6.58136 84.5221C30.854 117.633 42.9408 147.55 46.0674 155.93L46.3147 156.593 101.236 156.593 101.396 155.769C103.964 142.585 116.842 109.657 119.398 103.189L119.469 103.009 119.469 74.3176C119.466 68.6773 109.41 58.4358 103.873 58.4358Z" fill="#FEFEFE" transform="matrix(0.808152 -0.588974 0.589071 0.808285 540.128 796.638)"/><path d="M103.873 52.0525 103.187 52.0525C101.552 47.5193 97.0724 44.8811 92.6514 44.8811L80.8098 44.8811C79.0324 40.7726 74.6581 37.3052 70.4442 37.3052L59.3387 37.3052 59.3387 7.69138C59.3387 3.02225 56.3898 0 51.8217 0L37.1311 0C32.3088 0 29.758 3.94637 29.7274 7.86362L29.7274 76.3971C22.6793 70.0138 17.6984 66.7392 14.9211 66.7392L7.22968 66.7392C5.99237 66.7463 3.80901 66.6982 2.0086 68.4619 0.658388 69.792 0 71.715 0 74.3165L0 86.347 0.72419 87.3286C28.809 125.336 40.7949 160.114 40.9114 160.464L41.7625 162.975 107.342 162.975 107.342 159.279C107.342 153.129 118.532 122.668 125.59 104.895L125.852 74.3205C125.852 65.1667 112.911 52.0525 103.873 52.0525ZM118.447 102.81C115.895 109.275 102.992 142.242 100.396 155.572L47.0206 155.572C43.7675 146.853 31.6713 117.024 7.40156 83.9173L7.40156 74.3158C7.40156 74.259 7.40156 74.199 7.40156 74.1422L14.5511 74.1069C16.6111 74.6779 23.8048 80.8156 29.7253 86.5742L29.7253 89.2933 37.129 89.2933 37.129 7.40372 51.9364 7.69425 51.9364 74.3194 59.3405 74.3194 59.3405 44.7085 70.446 44.7085C71.7628 44.7085 74.2619 47.0199 74.2619 48.5833L74.2619 74.3191 81.6642 74.3191 81.6642 52.2845 92.6532 52.2845C93.7161 52.2845 96.4723 52.9062 96.4723 55.7566L96.4723 81.7681 103.875 81.7681 103.875 59.4577C108.912 59.4577 118.448 69.1828 118.448 74.3219L118.447 102.81 118.447 102.81Z" fill="#48775D" transform="matrix(0.808152 -0.588974 0.589071 0.808285 540.128 796.638)"/></g></g></g></g></svg>