<svg width="985" height="325" xmlns="http://www.w3.org/2000/svg" xmlns:xlink="http://www.w3.org/1999/xlink" xml:space="preserve" overflow="hidden"><g transform="translate(-490 -427)"><path d="M884.11 243.947C884.11 242.963 884.307 242.176 884.307 241.192L884.307 88.7258C884.307 48.9861 851.846 16.3287 812.107 16.3287L86.5617 16.3287C46.822 16.3287 14.1646 48.9861 14.1646 88.7258L14.1646 241.192C14.1646 280.932 46.6253 313.59 86.365 313.59L811.91 313.59C829.419 313.59 845.551 307.294 857.945 296.867 878.208 307.294 926.604 328.148 980.312 297.654 980.508 297.654 932.113 297.851 884.11 243.947Z" fill="#EFF0F2" transform="matrix(-1.00015 0 0 1 1474.4 427)"/></g></svg>