<svg width="582" height="516" xmlns="http://www.w3.org/2000/svg" xmlns:xlink="http://www.w3.org/1999/xlink" xml:space="preserve" overflow="hidden"><defs><clipPath id="clip0"><rect x="2010" y="1008" width="582" height="516"/></clipPath></defs><g clip-path="url(#clip0)" transform="translate(-2010 -1008)"><path d="M103.98 249.757C111.888 250.197 119.813 250.421 127.7 251.131 135.984 251.879 144.277 252.551 152.553 253.511 164.43 254.884 176.29 256.381 188.086 258.295 199.35 260.121 210.614 262.053 221.409 265.916 226.65 267.793 231.655 270.075 235.649 274.23 239.423 278.161 240.366 282.763 239.415 287.844 238.096 294.877 233.498 299.78 228.328 304.286 221.798 309.979 214.583 314.713 207.394 319.489 207.119 319.671 206.878 319.903 206.307 320.368 210.154 320.368 213.573 320.334 216.992 320.376 223.937 320.461 230.683 321.539 236.938 324.738 238.248 325.406 238.523 325.026 238.405 323.758 238.223 321.805 238.117 319.844 237.889 317.9 237.259 312.528 237.792 307.278 239.647 302.215 240.336 300.329 241.49 298.63 242.242 296.737 242.923 295.017 244.571 294.26 246.33 294.302 247.902 294.345 249.267 295.025 250.007 296.661 253.68 304.763 260.273 309.992 267.611 314.497 275.891 319.582 284.987 322.46 294.518 323.635 302.447 324.616 310.452 324.536 318.445 323.407 326.285 322.3 333.889 320.482 340.998 316.999 346.442 314.332 351.502 311.065 355.644 306.5 358.97 302.836 361.32 298.702 362.567 293.913 362.766 293.153 362.728 291.944 363.645 291.897 364.406 291.859 364.49 293.03 364.807 293.723 370.167 305.401 379.224 311.974 391.98 313.665 398.735 314.561 405.108 313.428 411.288 310.845 420.299 307.079 426.516 300.537 430.249 291.542 431.639 288.19 432.019 284.653 432.586 281.056 435.684 293.601 439.526 305.748 447.438 316.302 455.245 326.716 464.582 335.297 475.88 342.448 475.601 339.257 475.284 336.489 474.945 333.771 474.316 328.745 474.848 323.821 475.529 318.914 476.645 310.888 479.252 303.368 484.346 296.906 489.726 290.08 496.349 285.743 505.483 286.563 505.635 287.789 504.625 287.886 503.873 288.131 496.62 290.46 491.083 295.084 486.767 301.196 483.589 305.693 483.492 310.659 485.444 315.664 487.122 319.962 489.764 323.716 492.731 327.207 493.767 328.424 493.868 329.603 493.044 330.592 491.201 332.816 491.751 335.292 492.173 337.621 493.606 345.512 497.55 352.338 501.704 359.046 512.106 375.83 525.027 390.552 538.941 404.449 542.462 407.966 546.173 411.305 549.085 415.388 549.022 416.305 549.06 417.239 548.574 418.076 544.343 413.756 540.209 409.327 535.856 405.134 523.057 392.809 508.628 382.69 493.158 374.021 473.09 362.774 451.741 354.908 429.264 350.119 419.914 348.129 410.447 346.903 400.848 346.962 399.571 346.971 398.849 347.351 398.168 348.463 394.267 354.87 389.098 360.162 382.923 364.325 378.861 367.064 373.945 367.918 369.207 368.966 360.056 370.987 350.808 370.927 341.501 370.361 331.679 369.765 321.881 368.459 312.003 369.004 311.154 369.051 310.334 368.886 309.506 368.687 308.166 368.366 306.877 368.467 305.723 369.423 302.384 372.187 299.028 374.934 295.659 377.656 281.153 389.381 266.888 401.389 253.113 413.972 242.771 423.422 232.5 432.958 222.673 442.941 202.761 463.174 183.64 484.1 167.122 507.271 165.736 509.219 164.472 511.252 163.103 513.214 162.481 514.105 162.164 515.952 160.613 515.044 158.91 514.042 160.207 512.727 160.9 511.637 165.009 505.166 169.138 498.703 173.251 492.232 200.09 449.974 222.014 405.349 237.796 357.782 238.172 356.65 238.367 355.437 238.878 354.376 239.799 352.47 239.381 350.804 238.578 348.978 237.449 346.4 235.776 344.904 232.931 344.244 225.454 342.516 217.943 341.273 210.255 341.07 189.46 340.529 169.252 343.636 149.653 350.631 148.8 350.935 147.878 351.062 147.02 351.358 146.225 351.633 145.587 351.502 145.245 350.745 144.856 349.883 145.494 349.443 146.149 349.126 159.506 342.731 170.11 332.735 180.474 322.519 186.358 316.72 191.299 310.11 194.037 302.13 195.686 297.324 196.24 292.417 195.221 287.4 193.818 280.506 189.705 277.155 181.907 275.971 171.028 274.314 160.186 272.404 149.324 270.641 137.561 268.735 125.79 266.854 114.018 264.995 103.562 263.342 93.1091 261.639 82.6312 260.121 73.9581 258.866 65.2934 257.53 56.595 256.453 53.5898 256.081 50.3818 256.731 47.5584 254.948 46.899 254.529 45.9818 254.449 46.2016 253.452 46.3918 252.585 47.1864 252.395 48.0275 252.336 53.4207 251.951 58.814 251.545 64.2072 251.131 70.2978 250.662 76.3926 250.18 82.4832 249.707 89.6559 249.99 96.8201 249.821 103.98 249.757Z" fill="#FE6E98" transform="matrix(1.00085 0 0 1 2009.96 1008)"/><path d="M459.336 435.625C459.083 438.195 458.711 440.545 457.401 442.637 456.111 444.699 454.256 445.976 451.834 445.841 450.165 445.748 449.645 446.306 449.438 447.827 449.285 448.918 448.829 449.995 448.364 451.014 446.2 455.773 441.652 457.096 437.201 454.298 434.763 452.764 433.008 450.558 431.432 448.216 425.143 438.862 421.491 428.418 418.858 417.564 418.279 415.18 417.877 412.754 417.408 410.341 417.328 409.931 417.108 409.381 417.285 409.111 418.976 406.461 418.748 403.342 419.542 400.484 420.227 398.024 422.894 397.09 425.443 398.041 428.748 399.276 431.225 401.757 433.896 403.908 438.829 407.877 443.723 411.896 448.525 416.026 453.411 420.227 457.312 425.151 458.74 431.635 459.045 433 459.159 434.408 459.336 435.625Z" fill="#FE6F98" transform="matrix(1.00085 0 0 1 2009.96 1008)"/><path d="M270.426 220.632C267.26 220.158 264.107 219.554 260.924 219.233 255.485 218.683 250.036 218.856 244.58 219.169 241.887 219.326 239.275 220.298 236.532 219.883 236.173 219.829 235.755 220.141 235.366 220.281 232.297 220.382 229.423 221.515 226.426 221.988 232.513 214.537 232.39 205.568 226.79 197.723 218.645 186.315 209.837 175.466 200.483 165.047 196.726 160.862 192.774 156.847 188.932 152.735 188.433 152.198 187.6 151.864 187.651 150.93 190.96 152.329 193.877 154.421 196.92 156.272 201.235 158.897 205.373 161.818 209.617 164.561 217.635 169.747 225.395 175.292 232.948 181.142 239.343 186.096 245.484 191.328 251.051 197.203 253.025 199.287 255.015 201.375 256.613 203.788 257.036 204.427 257.526 205.111 258.156 205.5 262.636 208.239 265.083 212.762 268.156 216.735 268.325 216.95 268.57 217.107 268.777 217.293 269.327 218.4 269.876 219.516 270.426 220.632Z" fill="#FE6F98" transform="matrix(1.00085 0 0 1 2009.96 1008)"/><path d="M0.439572 184.735C2.3458 183.729 4.50984 183.762 6.53441 183.576 12.942 182.993 19.375 182.287 25.8207 182.638 37.3637 183.272 48.8095 184.54 59.7565 188.606 60.1369 188.746 60.5215 189.029 60.8808 188.568 66.3924 191.48 71.2953 195.229 75.5684 199.727 78.3158 202.618 78.2735 204.545 75.9108 207.516 75.4374 208.112 75.5093 208.569 75.5938 209.22 75.9826 212.166 73.827 214.85 70.8599 214.647 57.3642 213.717 43.822 212.994 30.8842 208.425 28.9526 207.745 27.0971 206.878 25.4022 205.754 23.124 204.241 21.4249 202.296 22.1984 199.266 22.5196 198.011 21.5306 198.243 20.9938 198.07 16.5854 196.65 12.1559 195.284 8.01797 193.146 6.06948 192.14 4.22666 190.99 2.73887 189.354 1.53005 188.04 0.583279 186.586 0.439572 184.735ZM33.1581 193.141C30.7363 193.213 28.5722 193.403 26.4842 194.029 25.0176 194.469 24.261 195.563 24.5822 197.102 24.8781 198.522 25.8841 199.207 27.3634 199.105 28.568 199.021 29.705 199.266 30.8842 199.541 37.0044 200.969 42.9555 203.205 49.2955 203.577 50.8847 203.67 52.5881 203.416 53.5475 201.814 54.6676 199.946 53.9744 198.285 51.5018 196.937 45.6986 193.771 39.2361 193.818 33.1581 193.141Z" fill="#FE6F98" transform="matrix(1.00085 0 0 1 2009.96 1008)"/><path d="M286.876 477.202C285.46 479.197 284.281 481.032 282.662 482.515 279.412 485.499 275.971 486.328 273.101 484.768 270.227 483.204 268.98 479.565 269.834 475.284 270.882 470.034 273.334 465.38 275.921 460.773 278.955 455.372 282.341 450.207 286.026 445.224 287.421 443.338 289.294 441.977 290.904 440.342 293.026 438.186 298.584 439.657 300.287 442.497 302.012 445.38 302.248 448.651 302.527 451.838 303.191 459.539 303.563 467.261 302.992 474.988 302.772 477.993 302.392 480.998 300.989 483.758 298.673 488.314 293.503 488.813 290.418 484.713 289.623 483.657 288.994 482.452 288.427 481.252 287.869 480.06 287.472 478.779 286.876 477.202Z" fill="#FE6F98" transform="matrix(1.00085 0 0 1 2009.96 1008)"/><path d="M214.676 84.1697C216.709 89.6348 218.455 95.1801 219.545 100.924 220.023 103.452 219.854 105.666 217.563 107.298 217.242 107.526 217.043 107.945 216.828 108.3 215.09 111.127 212.432 111.639 210.268 109.044 200.504 97.3273 191.785 84.9516 187.503 70.0273 186.641 67.0264 186.408 63.924 187.296 60.8723 187.828 59.038 188.632 57.3008 190.639 56.5569 190.643 57.398 190.703 58.2095 190.922 59.0507 192.892 66.553 196.633 73.1804 201.007 79.4823 202.119 81.0842 203.345 82.6692 204.79 83.9583 207.947 86.7606 211.337 86.1139 214.676 84.1697Z" fill="#FE6F98" transform="matrix(1.00085 0 0 1 2009.96 1008)"/><path d="M429.855 158.994C423.186 158.559 416.339 151.94 415.028 144.818 414.01 139.277 414.876 133.934 416.482 128.664 419.268 119.517 423.122 110.785 426.846 101.998 427.095 101.41 427.387 100.848 427.294 100.184 427.294 100.184 427.29 100.193 427.29 100.193 427.425 100.032 427.56 99.8675 427.691 99.7069 429.822 97.0821 430.388 93.6628 432.167 90.8563 432.459 90.3955 432.442 89.9264 431.969 89.5544 433.816 87.0861 435.705 84.6515 437.497 82.1451 438.596 80.6108 439.775 79.1019 440.384 77.2675 440.642 76.4898 440.993 75.7037 441.969 75.9911 442.996 76.2954 443.021 77.1365 442.751 78.0579 441.035 83.8527 438.731 89.4319 436.415 95.0026 431.669 106.415 427.4 117.987 424.978 130.151 423.723 136.449 423.452 142.789 424.213 149.201 424.741 153.647 427.1 156.661 430.739 158.918 430.439 158.943 430.147 158.969 429.855 158.994Z" fill="#FE6F98" transform="matrix(1.00085 0 0 1 2009.96 1008)"/><path d="M503.268 123.503C503.568 123.161 503.957 123.021 504.397 123.042 509.667 123.321 514.308 121.166 518.86 119.014 531.756 112.928 543.434 104.897 554.601 96.0931 556.803 94.3559 559.022 92.6441 561.233 90.9197 561.651 91.1986 561.647 91.6678 561.761 92.0862 561.71 93.0203 560.958 93.295 560.303 93.7135 558.122 95.104 555.856 96.3763 554.043 98.2909 552.044 100.404 551.507 102.458 552.593 104.322 553.726 106.271 556.385 107.281 558.819 106.71 564.229 105.434 569.322 103.287 574.386 101.047 576.364 100.172 578.367 99.3561 580.358 98.5107 578.608 101.613 575.586 103.202 572.64 104.804 564.031 109.483 554.8 112.645 545.509 115.624 533.358 119.517 521.058 122.886 508.526 125.354 506.442 125.764 504.486 125.637 503.268 123.503Z" fill="#FE6F98" transform="matrix(1.00085 0 0 1 2009.96 1008)"/><path d="M90.6534 317.87C88.4259 317.9 86.7479 317.883 85.1249 317.287 80.7926 315.698 79.9346 311.568 83.244 308.309 85.0446 306.534 87.3693 305.625 89.5375 304.518 93.5402 302.481 97.6316 300.528 102.344 300.917 102.763 300.951 103.295 300.794 103.591 300.997 106.254 302.811 109.166 301.678 111.964 301.767 114.779 301.855 116.795 303.089 117.408 305.241 117.97 307.21 116.956 309.472 114.589 310.841 108.617 314.29 102.019 315.96 95.3492 317.392 93.6205 317.76 91.8791 317.938 90.6534 317.87Z" fill="#FE6F98" transform="matrix(1.00085 0 0 1 2009.96 1008)"/><path d="M549.001 304.184C548.98 309.024 544.897 313.563 540.547 313.588 536.249 313.614 532.555 309.121 532.551 303.876 532.551 299.061 535.843 295.296 540.04 295.38 543.764 295.452 549.292 298.842 549.001 304.184Z" fill="#FE6F98" transform="matrix(1.00085 0 0 1 2009.96 1008)"/><path d="M429.847 21.0953C431.525 22.3759 431.567 24.0793 430.921 25.8333 429.551 29.5528 427.543 32.9426 425.117 36.0576 423.486 38.154 421.263 38.7458 419.394 37.8497 417.15 36.7762 416.064 34.4769 416.571 31.8775 417.006 29.6711 417.623 27.5155 418.469 25.4276 418.955 25.4318 419.154 25.7953 419.432 26.1165 421.254 28.2129 423.456 28.5638 425.739 26.9999 427.835 25.5671 429.086 23.4833 429.847 21.0953Z" fill="#FE6F98" transform="matrix(1.00085 0 0 1 2009.96 1008)"/><path d="M220.357 41.6579C222.115 41.5903 224.051 43.2937 224.689 45.6395 224.968 46.6623 225.272 47.6387 225.775 48.577 226.925 50.7241 226.414 52.8417 224.52 54.0505 222.474 55.3565 220.027 54.9508 218.59 52.9304 217.03 50.7368 216.671 48.1078 216.549 45.5338 216.456 43.6191 218.569 41.7256 220.357 41.6579Z" fill="#FE6F98" transform="matrix(1.00085 0 0 1 2009.96 1008)"/><path d="M307.443 413.765C307.265 416.296 304.311 418.908 301.779 418.769 299.552 418.651 297.481 416.525 297.654 414.542 297.848 412.332 301.466 409.381 303.719 409.597 305.693 409.787 307.574 411.892 307.443 413.765Z" fill="#FE6F98" transform="matrix(1.00085 0 0 1 2009.96 1008)"/><path d="M186.776 150.49C187.144 150.499 187.499 150.532 187.676 150.934 187.228 151.082 187 150.79 186.776 150.49Z" fill="#FE6F98" transform="matrix(1.00085 0 0 1 2009.96 1008)"/><path d="M404.453 147.058C393.929 145.528 384.964 148.778 376.811 155.423 370.991 160.169 367.766 166.539 364.334 172.879 362.69 175.922 361.439 179.117 360.373 182.401 358.602 180.702 357.013 178.855 355.115 177.41 347.486 171.602 340.293 165.085 330.651 162.536 323.111 160.545 315.567 159.573 307.811 161.184 305.702 161.623 303.508 161.661 301.352 161.881 304.129 157.549 308.09 154.544 312.599 152.303 319.337 148.96 326.463 147.206 334.054 147.024 340.102 146.881 345.88 147.557 351.417 150.051 353.298 150.896 355.018 151.97 356.455 153.432 357.41 154.404 358.074 154.374 359.08 153.445 365.555 147.451 373.036 143.36 381.79 141.792 384.237 141.352 386.667 141.745 389.115 142.012 393.895 142.527 398.506 143.571 402.779 145.854 403.388 146.175 404.124 146.34 404.453 147.058Z" fill="#FE6E98" transform="matrix(1.00085 0 0 1 2009.96 1008)"/><path d="M470.757 176.281C471.336 175.753 471.488 174.502 472.811 175.322 474.011 176.066 474.016 177.008 473.483 178.023 472.507 179.887 471.336 181.649 470.376 183.526 462.451 199.063 455.718 215.112 449.653 231.46 446.297 240.505 441.884 249.056 437.231 257.488 435.646 260.358 434.353 263.388 432.087 266.309 431.369 262.006 430.515 258.063 428.617 254.462 426.588 250.611 424.445 246.824 420.958 244.051 419.771 243.109 420.181 242.416 421.022 241.473 435.058 225.775 448.085 209.27 460.254 192.089 460.765 191.366 461.509 190.728 461.496 189.714 465.161 185.842 468.026 181.425 470.419 176.683 470.419 176.683 470.389 176.708 470.389 176.708 470.512 176.564 470.634 176.425 470.757 176.281Z" fill="#FE6F98" transform="matrix(1.00085 0 0 1 2009.96 1008)"/><path d="M443.871 197.867C440.997 200.652 437.721 202.951 434.598 205.433 431.195 208.133 427.755 210.783 424.327 213.459 425.253 210.902 426.275 208.378 427.091 205.783 429.365 198.543 430.012 191.121 428.892 183.623 428.389 180.267 426.622 177.139 426.884 173.61 428.351 173.462 427.404 172.262 427.746 171.628 428.676 171.712 428.516 172.443 428.609 173.048 429.589 179.582 433.152 184.861 437.015 189.942 439.12 192.719 441.572 195.234 443.871 197.867Z" fill="#FE6F98" transform="matrix(1.00085 0 0 1 2009.96 1008)"/><path d="M331.243 243.109C333.593 242.86 335.791 243.988 338.112 244.106 345.2 244.457 352.203 244.711 358.746 241.046 361.772 239.351 365.251 239.005 369.008 238.861 368.041 240.379 366.587 240.298 365.61 241.051 361.088 244.55 356.168 247.602 352.994 252.585 351.874 254.343 350.293 253.79 348.915 253.054 344.46 250.679 340.073 248.177 335.631 245.776 334.172 244.99 332.625 244.36 331.121 243.658 331.163 243.477 331.201 243.295 331.243 243.109Z" fill="#FE6F98" transform="matrix(1.00085 0 0 1 2009.96 1008)"/><path d="M338.458 7.24872C339.253 14.9455 339.587 22.6549 339.354 30.3897 339.185 36.0027 338.429 41.5523 337.811 47.123 336.729 56.8401 334.726 66.3628 332.16 75.7671 328.035 90.8985 322.87 105.679 316.577 120.058 314.041 125.853 311.429 131.618 307.756 136.808 305.017 140.68 301.657 143.804 296.876 144.957 290.786 146.424 285.693 144.171 281.09 140.473 279.856 139.48 279.606 139.526 279.188 141.065 277.539 147.16 275.117 152.937 270.73 157.604 265.899 162.743 259.635 164.924 252.767 165.229 240.797 165.757 229.579 162.388 218.599 158.098 203.361 152.143 189.464 143.829 176.535 133.863 175.178 132.814 173.783 131.728 172.887 130.19 177.017 131.808 180.846 134.053 184.815 136.001 201.92 144.4 219.089 152.709 237.171 158.77 242.606 160.592 248.612 161.602 254.631 159.992 259.825 158.601 264.335 156.255 267.822 152.151 272.108 147.109 274.568 141.175 276.013 134.775 276.119 134.306 275.988 133.664 276.508 133.465 277.1 133.241 277.294 133.892 277.582 134.251 282.438 140.363 290.887 140.929 296.745 135.511 301.027 131.555 304.159 126.791 306.538 121.5 312.16 108.997 317.059 96.2199 321.327 83.1891 325.698 69.8455 328.969 56.2357 331.835 42.4991 333.851 32.8327 335.918 23.1832 337.533 13.4408 337.862 11.3824 338.145 9.31556 338.458 7.24872Z" fill="#FEEF8A" transform="matrix(1.00085 0 0 1 2009.96 1008)"/><path d="M103.98 249.757C96.8158 249.825 89.6559 249.99 82.4959 249.698 85.7547 249.309 89.0092 248.921 92.268 248.536 97.8302 247.877 103.397 247.243 108.959 246.562 114.94 245.831 120.916 245.091 126.889 244.309 133.414 243.456 139.94 242.581 146.458 241.647 153.804 240.594 161.146 239.504 168.479 238.367 176.712 237.09 184.959 235.86 193.154 234.368 197.267 233.62 201.519 233.988 205.538 232.517 207.432 231.824 209.325 231.008 211.371 230.784 210.598 231.942 209.228 232.073 208.108 232.542 195.597 237.788 182.883 242.471 169.578 245.294 162.595 246.778 155.579 248.025 148.432 248.62 143.191 249.056 137.929 249.601 132.704 249.605 127.113 249.614 121.478 249.656 115.882 249.064 111.884 248.642 107.932 249.309 103.98 249.757Z" fill="#FEEF8A" transform="matrix(1.00085 0 0 1 2009.96 1008)"/><path d="M429.855 158.994C430.147 158.969 430.443 158.943 430.735 158.918 436.06 161.678 441.677 163.542 447.523 164.903 453.799 166.366 460.038 166.137 466.31 165.229 477.401 163.627 488.395 161.522 499.337 159.1 518.362 154.886 536.701 148.461 555.1 142.21 556.089 141.872 557.133 141.031 558.244 141.995 538.151 152.439 517.216 160.689 495.162 165.934 488.209 167.587 481.146 168.597 473.99 169.151 462.003 170.081 450.334 168.851 438.96 164.954 436.225 164.015 433.651 162.709 431.356 160.922 430.701 160.419 429.936 159.962 429.855 158.994Z" fill="#FEEF8A" transform="matrix(1.00085 0 0 1 2009.96 1008)"/><path d="M431.965 89.5544C432.438 89.9264 432.455 90.3955 432.163 90.8563 430.384 93.6628 429.817 97.0821 427.687 99.7069 427.552 99.8675 427.417 100.032 427.286 100.193 427.286 100.193 427.29 100.184 427.29 100.184 421.804 104.766 416.486 109.58 410.265 113.194 400.725 118.74 390.742 122.818 379.389 122.159 375.184 121.914 371.27 120.781 367.766 118.389 370.416 118.621 372.939 119.555 375.627 119.652 384.275 119.965 392.225 117.446 399.956 113.887 411.579 108.541 421.22 100.578 429.97 91.4015 430.595 90.7506 431.297 90.1715 431.965 89.5544Z" fill="#FEEF8A" transform="matrix(1.00085 0 0 1 2009.96 1008)"/><path d="M226.422 221.988C229.423 221.515 232.293 220.382 235.361 220.281 229.926 222.428 225.019 225.763 219.359 227.403 221.714 225.598 224.068 223.793 226.422 221.988Z" fill="#FEEF8A" transform="matrix(1.00085 0 0 1 2009.96 1008)"/><path d="M212.647 230.366C212.318 230.835 211.823 230.805 211.337 230.792 211.658 230.311 212.157 230.353 212.647 230.366Z" fill="#FEEF8A" transform="matrix(1.00085 0 0 1 2009.96 1008)"/><path d="M217.694 228.24C217.508 228.582 217.183 228.641 216.84 228.658 217.03 228.32 217.356 228.269 217.694 228.24Z" fill="#FEEF8A" transform="matrix(1.00085 0 0 1 2009.96 1008)"/><path d="M218.544 227.808C218.37 228.185 218.028 228.227 217.677 228.252 217.867 227.923 218.184 227.821 218.544 227.808Z" fill="#FEEF8A" transform="matrix(1.00085 0 0 1 2009.96 1008)"/><path d="M219.385 227.39C219.224 227.796 218.878 227.83 218.514 227.83 218.692 227.466 219.021 227.394 219.385 227.39Z" fill="#FEEF8A" transform="matrix(1.00085 0 0 1 2009.96 1008)"/><path d="M172.9 130.206C172.498 130.232 172.19 130.097 172.033 129.699 172.367 129.788 172.744 129.809 172.9 130.206Z" fill="#FEEF8A" transform="matrix(1.00085 0 0 1 2009.96 1008)"/><path d="M270.426 220.632C269.876 219.516 269.327 218.4 268.777 217.288 266.148 201.455 271.237 187.854 281.081 175.766 284.881 171.104 289.776 167.608 295.122 164.848 297.159 163.796 299.011 162.299 301.357 161.881 303.512 161.661 305.706 161.623 307.815 161.184 315.567 159.573 323.115 160.545 330.656 162.536 340.297 165.085 347.495 171.602 355.12 177.41 357.017 178.855 358.607 180.702 360.378 182.401 361.439 179.117 362.69 175.922 364.338 172.879 367.77 166.539 370.991 160.169 376.815 155.423 384.964 148.778 393.933 145.528 404.457 147.058 409.246 148.102 413.849 149.679 417.526 153.035 423.021 158.043 427.7 163.589 427.751 171.628 427.408 172.266 428.355 173.462 426.888 173.61 425.164 169.1 422.23 165.516 418.443 162.591 406.774 153.588 392.986 155.528 382.999 165.059 374.592 173.082 370.598 183.141 369.727 194.722 369.199 201.793 368.7 208.852 368.476 216.375 366.549 213.683 364.828 211.291 363.121 208.89 358.843 202.888 354.786 196.688 349.621 191.408 342.342 183.965 333.238 179.942 323.027 178.39 313.174 176.894 303.681 178.433 294.632 182.444 289.657 184.65 285.24 187.803 281.424 191.738 279.458 193.763 278.854 196.392 278.364 199.012 277.18 205.352 277.725 211.451 281.352 216.992 283 219.516 285.295 221.354 287.933 222.787 288.655 223.18 289.382 223.248 290.173 223.032 291.525 222.66 292.912 222.39 294.243 221.955 298.36 220.619 301.999 222.179 305.575 223.848 314.489 228.016 321.915 233.954 327.148 242.416 327.46 242.923 327.984 243.371 327.71 244.267 315.503 236.376 302.32 233.65 288.11 236.646 273.947 239.63 262.311 246.313 255.223 259.475 254.36 258.338 254.225 257.847 254.652 256.199 256.305 249.812 259.601 244.297 263.858 239.339 266.985 235.7 270.591 232.576 274.729 230.108 275.891 229.415 276.06 228.937 275.054 227.775 273.19 225.636 270.929 223.679 270.426 220.632Z" fill="#FEEF89" transform="matrix(1.00085 0 0 1 2009.96 1008)"/><path d="M357.115 262.75C357.216 255.988 359.651 250.983 363.269 246.385 365.116 244.035 367.394 242.183 369.562 240.188 371.895 238.041 374.938 237.568 377.825 236.718 382.039 235.48 386.431 235.061 390.725 235.163 397.619 235.328 404.453 236.376 410.349 240.488 411.034 240.966 411.668 241.549 412.213 242.175 412.754 242.792 412.48 243.494 412.125 244.14 411.778 244.774 411.224 244.631 410.649 244.597 398.033 243.827 386.608 247.036 376.663 254.977 370.551 259.855 366.76 266.178 365.378 273.896 365.12 275.341 364.985 276.808 364.773 278.262 364.71 278.714 364.997 279.369 364.397 279.56 363.75 279.767 363.37 279.137 363.066 278.727 360.821 275.718 359.055 272.438 358.099 268.799 357.516 266.575 357.013 264.297 357.115 262.75Z" fill="#FEEF89" transform="matrix(1.00085 0 0 1 2009.96 1008)"/><path d="M470.419 176.683C468.026 181.425 465.161 185.842 461.496 189.714 458.69 191.13 456.623 193.496 454.374 195.563 447.083 202.279 439.742 208.953 432.941 216.168 428.79 220.568 424.428 224.761 420.252 229.131 419.631 229.778 419.107 230.53 417.945 229.985 416.719 229.415 417.091 228.4 417.256 227.627 417.966 224.338 418.832 221.088 419.99 217.914 420.789 215.729 422.898 214.955 424.331 213.463 427.755 210.792 431.199 208.142 434.602 205.437 437.725 202.956 441.001 200.656 443.875 197.871 447.447 195.521 450.646 192.685 453.943 189.984 459.205 185.677 464.404 181.29 469.641 176.949 469.835 176.78 470.157 176.767 470.419 176.683Z" fill="#FEEF89" transform="matrix(1.00085 0 0 1 2009.96 1008)"/><path d="M470.757 176.281C470.634 176.421 470.512 176.564 470.389 176.704 470.512 176.564 470.634 176.425 470.757 176.281Z" fill="#FEEF89" transform="matrix(1.00085 0 0 1 2009.96 1008)"/><path d="M558.244 141.995C558.84 141.804 559.449 141.644 560.032 141.416 560.844 141.099 561.622 141.056 561.985 141.973 562.31 142.798 561.693 143.33 561.038 143.622 559.31 144.391 557.53 145.059 555.793 145.811 541.951 151.779 528.882 159.218 515.948 166.898 509.913 170.482 503.619 173.682 497.998 177.909 482.638 189.46 472.857 204.744 469.324 223.569 465.706 242.843 470.715 260.134 483.301 275.198 487.067 279.703 491.603 283.14 497.161 285.152 499.063 285.84 501.007 285.917 502.968 285.49 504.084 285.245 505.073 285.198 505.487 286.559 496.353 285.739 489.73 290.071 484.35 296.902 479.257 303.364 476.649 310.883 475.533 318.91 474.852 323.817 474.32 328.741 474.95 333.767 475.292 336.484 475.609 339.253 475.884 342.444 464.586 335.292 455.245 326.708 447.443 316.298 439.534 305.744 435.688 293.596 432.59 281.052 432.019 284.649 431.643 288.186 430.253 291.538 426.521 300.532 420.299 307.075 411.292 310.841 405.113 313.424 398.739 314.556 391.985 313.66 379.228 311.97 370.171 305.397 364.811 293.719 364.494 293.026 364.41 291.855 363.649 291.893 362.732 291.94 362.77 293.148 362.571 293.909 361.324 298.694 358.974 302.832 355.648 306.496 351.506 311.061 346.447 314.328 341.003 316.995 333.893 320.478 326.29 322.295 318.449 323.403 310.457 324.531 302.451 324.607 294.522 323.631 284.991 322.456 275.899 319.578 267.615 314.493 260.278 309.987 253.684 304.759 250.011 296.656 249.271 295.025 247.906 294.34 246.334 294.298 244.576 294.252 242.931 295.012 242.247 296.733 241.494 298.626 240.34 300.325 239.652 302.21 237.796 307.274 237.263 312.528 237.893 317.895 238.121 319.84 238.227 321.801 238.409 323.754 238.527 325.022 238.253 325.406 236.942 324.734 230.687 321.535 223.941 320.457 216.997 320.372 213.577 320.33 210.158 320.364 206.312 320.364 206.886 319.899 207.127 319.666 207.398 319.485 214.587 314.709 221.802 309.975 228.333 304.281 233.502 299.776 238.1 294.873 239.419 287.84 240.374 282.759 239.432 278.156 235.653 274.226 231.663 270.071 226.655 267.788 221.413 265.912 210.614 262.049 199.35 260.121 188.091 258.291 176.294 256.376 164.434 254.88 152.557 253.507 144.285 252.551 135.993 251.875 127.704 251.127 119.822 250.417 111.892 250.189 103.984 249.753 107.936 249.305 111.888 248.637 115.878 249.06 121.474 249.652 127.108 249.61 132.7 249.601 137.924 249.593 143.187 249.052 148.428 248.616 155.575 248.02 162.595 246.773 169.574 245.29 182.879 242.462 195.593 237.783 208.104 232.538 209.224 232.069 210.593 231.938 211.367 230.78 211.367 230.78 211.337 230.792 211.337 230.792 211.827 230.805 212.318 230.835 212.647 230.366 214.046 229.795 215.445 229.224 216.844 228.654 217.187 228.637 217.512 228.578 217.698 228.235 217.698 228.235 217.677 228.248 217.677 228.248 218.028 228.223 218.37 228.18 218.544 227.804 218.544 227.804 218.514 227.821 218.514 227.821 218.878 227.821 219.228 227.787 219.385 227.382 219.385 227.382 219.364 227.398 219.364 227.398 225.023 225.754 229.93 222.424 235.366 220.277 235.755 220.133 236.173 219.824 236.532 219.879 239.275 220.293 241.887 219.321 244.58 219.165 250.036 218.852 255.485 218.679 260.924 219.228 264.107 219.55 267.26 220.15 270.426 220.627 270.929 223.675 273.19 225.632 275.046 227.779 276.052 228.941 275.882 229.419 274.72 230.112 270.582 232.576 266.977 235.704 263.849 239.343 259.593 244.297 256.296 249.812 254.643 256.203 254.217 257.852 254.352 258.342 255.214 259.479 262.302 246.313 273.938 239.635 288.102 236.651 302.316 233.654 315.495 236.384 327.701 244.271 327.976 243.379 327.452 242.927 327.139 242.42 321.907 233.958 314.48 228.02 305.566 223.852 301.991 222.183 298.351 220.619 294.235 221.959 292.903 222.39 291.517 222.665 290.164 223.037 289.378 223.252 288.651 223.184 287.924 222.791 285.287 221.359 282.996 219.52 281.343 216.997 277.717 211.456 277.172 205.352 278.355 199.016 278.845 196.396 279.446 193.771 281.415 191.742 285.232 187.812 289.649 184.654 294.623 182.448 303.673 178.437 313.166 176.898 323.018 178.395 333.23 179.946 342.334 183.97 349.612 191.413 354.773 196.692 358.835 202.892 363.112 208.894 364.824 211.295 366.544 213.691 368.467 216.38 368.691 208.86 369.186 201.798 369.719 194.726 370.589 183.145 374.583 173.086 382.99 165.064 392.982 155.533 406.765 153.593 418.435 162.595 422.226 165.52 425.16 169.104 426.88 173.614 426.618 177.143 428.385 180.271 428.887 183.627 430.008 191.121 429.361 198.547 427.087 205.788 426.275 208.378 425.253 210.906 424.323 213.463 422.89 214.955 420.781 215.729 419.982 217.914 418.824 221.088 417.957 224.338 417.247 227.627 417.082 228.4 416.71 229.415 417.936 229.985 419.099 230.526 419.627 229.778 420.244 229.131 424.424 224.761 428.782 220.572 432.932 216.168 439.737 208.958 447.079 202.279 454.366 195.563 456.61 193.496 458.677 191.13 461.488 189.714 461.5 190.728 460.757 191.366 460.245 192.089 448.077 209.27 435.05 225.775 421.013 241.473 420.172 242.416 419.766 243.109 420.95 244.051 424.441 246.824 426.58 250.611 428.609 254.462 430.506 258.063 431.36 262.011 432.079 266.309 434.344 263.388 435.642 260.358 437.222 257.488 441.876 249.056 446.293 240.505 449.645 231.46 455.706 215.116 462.443 199.063 470.368 183.526 471.323 181.653 472.494 179.887 473.475 178.023 474.007 177.008 473.999 176.066 472.802 175.322 471.48 174.502 471.327 175.753 470.748 176.281 470.626 176.421 470.503 176.564 470.381 176.704L470.41 176.679C470.148 176.763 469.827 176.78 469.628 176.945 464.391 181.286 459.193 185.673 453.93 189.98 450.634 192.681 447.434 195.517 443.863 197.867 441.563 195.234 439.112 192.719 437.003 189.942 433.144 184.861 429.581 179.578 428.596 173.048 428.503 172.443 428.663 171.712 427.738 171.628 427.687 163.589 423.012 158.039 417.514 153.035 413.836 149.683 409.234 148.106 404.445 147.058 404.115 146.34 403.38 146.175 402.771 145.849 398.498 143.567 393.891 142.523 389.106 142.007 386.659 141.745 384.229 141.352 381.781 141.787 373.028 143.351 365.551 147.447 359.072 153.44 358.066 154.37 357.402 154.4 356.447 153.428 355.01 151.97 353.289 150.892 351.409 150.046 345.872 147.557 340.094 146.876 334.046 147.02 326.45 147.202 319.328 148.956 312.591 152.299 308.081 154.539 304.121 157.54 301.34 161.877 298.994 162.295 297.147 163.791 295.105 164.844 289.759 167.604 284.864 171.099 281.064 175.761 271.22 187.85 266.132 201.447 268.761 217.284 268.549 217.098 268.304 216.942 268.139 216.726 265.066 212.753 262.619 208.231 258.139 205.492 257.509 205.107 257.015 204.418 256.596 203.78 254.994 201.366 253.004 199.279 251.034 197.195 245.467 191.32 239.33 186.087 232.931 181.133 225.378 175.284 217.622 169.738 209.6 164.552 205.356 161.809 201.219 158.889 196.903 156.264 193.86 154.413 190.944 152.316 187.634 150.921 187.634 150.921 187.659 150.93 187.659 150.93 187.486 150.528 187.131 150.494 186.759 150.486 183.792 148.009 181.252 145.084 178.352 142.527 174.405 139.04 170.749 135.219 166.852 131.669 165.592 130.523 165.499 129.285 166.243 128.152 167.021 126.969 168.263 127.708 169.257 128.182 170.203 128.634 171.099 129.188 172.017 129.695 172.173 130.092 172.481 130.223 172.883 130.202 172.883 130.202 172.866 130.19 172.866 130.19 173.762 131.728 175.157 132.814 176.514 133.863 189.443 143.829 203.34 152.143 218.577 158.098 229.558 162.388 240.78 165.757 252.746 165.229 259.614 164.924 265.878 162.743 270.709 157.604 275.096 152.933 277.518 147.16 279.167 141.065 279.585 139.522 279.834 139.48 281.069 140.473 285.671 144.176 290.769 146.424 296.855 144.957 301.635 143.808 304.996 140.68 307.735 136.808 311.408 131.618 314.02 125.853 316.556 120.058 322.849 105.683 328.014 90.9027 332.139 75.7671 334.705 66.3628 336.708 56.8401 337.79 47.123 338.412 41.5523 339.164 35.9985 339.333 30.3897 339.566 22.6549 339.232 14.9412 338.437 7.24872 338.458 5.95114 338.53 4.66623 338.238 3.36019 337.959 2.09642 338.352 0.925638 339.371 0.0380399 339.511 0.0380399 339.654 0.0380399 339.794 0.0380399 340.821 0.866465 341.02 2.00766 341.041 3.23762 341.18 11.5303 341.218 19.823 341.518 28.1115 341.827 36.7973 342.233 45.4788 343.124 54.1393 344.278 65.3526 345.491 76.5448 348.256 87.5003 350.322 95.7 353.235 103.574 357.237 111.047 358.366 113.156 360.124 114.454 362.102 115.544 363.945 116.563 365.864 117.446 367.745 118.389 371.253 120.781 375.162 121.918 379.368 122.159 390.717 122.814 400.7 118.735 410.244 113.194 416.465 109.58 421.782 104.766 427.269 100.184 427.362 100.848 427.07 101.41 426.821 101.998 423.101 110.781 419.246 119.517 416.457 128.664 414.851 133.934 413.984 139.277 415.003 144.818 416.313 151.944 423.16 158.559 429.83 158.994 429.91 159.962 430.675 160.419 431.326 160.926 433.621 162.714 436.195 164.02 438.93 164.958 450.304 168.855 461.974 170.085 473.961 169.155 481.116 168.601 488.175 167.591 495.132 165.939 517.216 160.689 538.151 152.439 558.244 141.995ZM357.115 262.75C357.013 264.297 357.516 266.571 358.104 268.803 359.059 272.442 360.826 275.722 363.07 278.731 363.379 279.145 363.759 279.771 364.401 279.564 365.002 279.374 364.714 278.719 364.778 278.266 364.989 276.812 365.12 275.346 365.382 273.9 366.764 266.178 370.56 259.859 376.667 254.982 386.612 247.04 398.033 243.832 410.654 244.601 411.229 244.635 411.778 244.778 412.129 244.144 412.484 243.498 412.754 242.796 412.218 242.179 411.668 241.549 411.034 240.97 410.354 240.493 404.457 236.38 397.623 235.328 390.729 235.167 386.435 235.066 382.043 235.48 377.829 236.722 374.943 237.572 371.895 238.045 369.566 240.193 367.402 242.188 365.12 244.039 363.273 246.389 359.651 250.983 357.216 255.988 357.115 262.75ZM331.243 243.109C331.201 243.291 331.163 243.477 331.121 243.663 332.625 244.364 334.172 244.99 335.631 245.78 340.073 248.181 344.46 250.679 348.915 253.058 350.293 253.794 351.874 254.348 352.994 252.589 356.168 247.606 361.088 244.55 365.61 241.055 366.582 240.302 368.041 240.379 369.008 238.865 365.251 239.009 361.768 239.356 358.746 241.051 352.203 244.715 345.2 244.461 338.112 244.111 335.791 243.988 333.593 242.86 331.243 243.109Z" fill="#FEA0BD" transform="matrix(1.00085 0 0 1 2009.96 1008)"/><path d="M0.0380399 183.45C2.1091 176.78 7.79396 175.719 13.5084 175.039 26.5096 173.496 38.4668 177.393 50.1113 182.549 53.3785 183.995 56.4724 185.838 59.6424 187.507 60.1327 187.765 60.6948 187.951 60.8766 188.572 60.5173 189.033 60.1327 188.754 59.7523 188.61 48.8052 184.544 37.3594 183.276 25.8164 182.642 19.3666 182.287 12.9378 182.997 6.53019 183.581 4.50984 183.762 2.3458 183.729 0.435346 184.739 0.300093 184.73 0.169066 184.722 0.0338133 184.722 0.0380399 184.295 0.0380399 183.872 0.0380399 183.45Z" fill="#FEA0BD" transform="matrix(1.00085 0 0 1 2009.96 1008)"/><path d="M561.765 92.0862C564.707 91.4733 567.649 90.852 570.595 90.2561 572.476 89.8714 574.394 89.9137 576.267 90.142 578.976 90.4674 580.561 92.2849 581.55 94.7025 581.55 95.2647 581.55 95.831 581.55 96.3932 581.153 97.099 580.76 97.8091 580.362 98.515 578.372 99.3561 576.368 100.176 574.39 101.051 569.327 103.291 564.234 105.438 558.823 106.715 556.389 107.29 553.735 106.275 552.598 104.327 551.511 102.463 552.052 100.404 554.047 98.2952 555.861 96.3805 558.126 95.1083 560.307 93.7177 560.962 93.295 561.71 93.0203 561.765 92.0862Z" fill="#FEA0BD" transform="matrix(1.00085 0 0 1 2009.96 1008)"/><path d="M503.268 123.503C502 121.817 502.283 120.101 503.864 118.11 506.945 114.234 510.559 110.937 514.473 107.94 524.968 99.9055 536.278 93.3458 548.777 88.9416 551.08 88.1301 553.451 87.3439 555.958 87.5468 558.278 87.737 560.375 88.3963 561.237 90.9239 559.026 92.6484 556.807 94.3644 554.605 96.0973 543.438 104.901 531.76 112.932 518.865 119.018 514.312 121.166 509.672 123.325 504.401 123.046 503.961 123.021 503.568 123.161 503.268 123.503Z" fill="#FEA0BD" transform="matrix(1.00085 0 0 1 2009.96 1008)"/><path d="M214.676 84.1697C211.337 86.1182 207.947 86.7648 204.794 83.9541 203.349 82.665 202.123 81.08 201.011 79.4781 196.633 73.1761 192.896 66.5487 190.927 59.0464 190.707 58.2095 190.648 57.3938 190.643 56.5527 193.129 54.4943 195.555 55.5383 197.837 56.8612 202.258 59.4184 204.921 63.5774 207.419 67.8421 210.441 73.0113 212.601 78.5736 214.676 84.1697Z" fill="#FEA0BD" transform="matrix(1.00085 0 0 1 2009.96 1008)"/><path d="M429.847 21.0953C429.082 23.4833 427.835 25.5671 425.743 26.9957 423.456 28.5595 421.254 28.2087 419.437 26.1123 419.158 25.7911 418.959 25.4276 418.473 25.4234 419.006 24.0581 419.428 22.6338 420.1 21.3446 421.377 18.9016 423.304 18.2169 425.878 19.1806 427.256 19.6962 429.04 19.3961 429.847 21.0953Z" fill="#FEA0BD" transform="matrix(1.00085 0 0 1 2009.96 1008)"/><path d="M548.574 418.063C549.06 417.226 549.022 416.292 549.085 415.375 550.649 416.96 552.251 418.507 553.756 420.147 554.343 420.789 555.024 421.664 554.085 422.514 553.079 423.422 552.441 422.48 551.854 421.833 550.734 420.607 549.664 419.327 548.574 418.063Z" fill="#FEA0BD" transform="matrix(1.00085 0 0 1 2009.96 1008)"/><path d="M33.1581 193.141C39.2361 193.818 45.6986 193.771 51.5018 196.933 53.9744 198.281 54.6676 199.942 53.5475 201.81 52.5881 203.412 50.8847 203.666 49.2955 203.573 42.9598 203.201 37.0044 200.961 30.8842 199.536 29.705 199.262 28.568 199.016 27.3634 199.101 25.8841 199.202 24.8781 198.522 24.5822 197.098 24.261 195.563 25.0176 194.464 26.4842 194.025 28.5722 193.403 30.7405 193.213 33.1581 193.141Z" fill="#FEA0BD" transform="matrix(1.00085 0 0 1 2009.96 1008)"/><path d="M427.286 100.193C427.421 100.032 427.556 99.8675 427.687 99.7069 427.552 99.8717 427.417 100.032 427.286 100.193Z" fill="#FEA0BD" transform="matrix(1.00085 0 0 1 2009.96 1008)"/></g></svg>