<svg width="61" height="62" xmlns="http://www.w3.org/2000/svg" xmlns:xlink="http://www.w3.org/1999/xlink" xml:space="preserve" overflow="hidden"><defs><clipPath id="clip0"><rect x="1758" y="908" width="61" height="62"/></clipPath></defs><g clip-path="url(#clip0)" transform="translate(-1758 -908)"><path d="M60.0758 30.5C60.0758 46.8342 46.8342 60.0758 30.5 60.0758 14.1658 60.0758 0.924242 46.8342 0.924242 30.5 0.924242 14.1658 14.1658 0.924242 30.5 0.924242 46.8342 0.924242 60.0758 14.1658 60.0758 30.5Z" fill="#BFE1FC" transform="matrix(1 0 0 1.01639 1758 908)"/><path d="M30.5 61C13.6788 61 0 47.3212 0 30.5 0 13.6788 13.6788 0 30.5 0 47.3212 0 61 13.6788 61 30.5 61 47.3212 47.3212 61 30.5 61ZM30.5 1.84848C14.7263 1.84848 1.84848 14.7263 1.84848 30.5 1.84848 46.2737 14.7263 59.1515 30.5 59.1515 46.2737 59.1515 59.1515 46.2737 59.1515 30.5 59.1515 14.7263 46.2737 1.84848 30.5 1.84848Z" fill="#2D73D9" transform="matrix(1 0 0 1.01639 1758 908)"/><path d="M28.0354 42.0222 39.3111 30.3152 28.0354 18.9778 25.3859 21.5657 34.1354 30.3768 25.3859 39.496Z" fill="#FFFFFF" transform="matrix(1 0 0 1.01639 1758 908)"/></g></svg>